<?xml version="1.0" encoding="UTF-8"?>
<svg width="400px" height="139px" viewBox="0 0 400 139" version="1.1" xmlns="http://www.w3.org/2000/svg" xmlns:xlink="http://www.w3.org/1999/xlink">
    <!-- Generator: Sketch 54.1 (76490) - https://sketchapp.com -->
    <title>Group</title>
    <desc>Created with Sketch.</desc>
    <g id="Page-1" stroke="none" stroke-width="1" fill="none" fill-rule="evenodd">
        <g id="eagro_logo-01" transform="translate(-72.000000, -57.000000)">
            <g id="Group" transform="translate(72.000000, 57.000000)">
                <path d="M0,136.088157 L9.51232904,136.088157 L9.51232904,134.123992 L2.23299869,134.123992 L2.23299869,130.783582 L8.60440649,130.783582 L8.60440649,128.801308 L2.23299869,128.801308 L2.23299869,125.550233 L9.42153678,125.550233 L9.42153678,123.58486 L0,123.58486 L0,136.088157 Z M11.7171085,136.088157 L13.9317034,136.088157 L13.9317034,123.048849 L11.7171085,123.048849 L11.7171085,136.088157 Z M20.8920339,136.303045 C22.6538944,136.303045 23.9065821,135.606472 24.8145047,134.53445 L23.5250093,133.409311 C22.7630905,134.1421 21.9999448,134.53445 20.9288416,134.53445 C19.5129732,134.53445 18.4050623,133.677316 18.1694932,132.141717 L25.2132544,132.141717 C25.2316583,131.92683 25.2488352,131.730051 25.2488352,131.533273 C25.2488352,128.818209 23.7065938,126.460486 20.6564648,126.460486 C17.9155203,126.460486 15.9733022,128.675756 15.9733022,131.372711 L15.9733022,131.408928 C15.9733022,134.32077 18.1155086,136.303045 20.8920339,136.303045 Z M18.1523163,130.712355 C18.3510777,129.247983 19.2958079,128.22908 20.6392879,128.22908 C22.090737,128.22908 22.9262712,129.31921 23.071048,130.712355 L18.1523163,130.712355 Z M27.1456572,136.088157 L29.360252,136.088157 L29.360252,133.391202 L30.7221358,131.998057 L33.5538726,136.088157 L36.1316365,136.088157 L32.1919888,130.497468 L36.0040366,126.657264 L33.3367074,126.657264 L29.360252,130.8367 L29.360252,123.050056 L27.1456572,123.050056 L27.1456572,136.088157 Z M40.4602186,136.249926 C41.2957527,136.249926 41.8944908,136.071256 42.4392443,135.767034 L42.4392443,133.99844 C42.0036869,134.213327 41.5681295,134.32077 41.0773605,134.32077 C40.3338456,134.32077 39.8982881,133.981538 39.8982881,133.141305 L39.8982881,128.515194 L42.4748251,128.515194 L42.4748251,126.657264 L39.8982881,126.657264 L39.8982881,124.067753 L37.7008702,124.067753 L37.7008702,126.657264 L36.4849901,126.657264 L36.4849901,128.515194 L37.7008702,128.515194 L37.7008702,133.480537 C37.7008702,135.552147 38.8443618,136.249926 40.4602186,136.249926 Z M44.3900509,136.088157 L46.6046457,136.088157 L46.6046457,132.499058 C46.6046457,129.997674 47.9481257,128.765091 49.87194,128.765091 L49.9995399,128.765091 L49.9995399,126.478594 C48.3112947,126.407367 47.2033839,127.371945 46.6046457,128.783199 L46.6046457,126.657264 L44.3900509,126.657264 L44.3900509,136.088157 Z M55.8347826,136.303045 C58.7941194,136.303045 60.9731335,134.069666 60.9731335,131.390819 L60.9731335,131.354602 C60.9731335,128.657647 58.8125232,126.460486 55.8715903,126.460486 C52.9306574,126.460486 50.7516433,128.693864 50.7516433,131.390819 L50.7516433,131.427036 C50.7516433,134.105883 52.9122536,136.303045 55.8347826,136.303045 Z M55.8715903,134.410106 C54.1649413,134.410106 52.9490613,133.033862 52.9490613,131.390819 L52.9490613,131.354602 C52.9490613,129.71156 54.0741491,128.354632 55.8347826,128.354632 C57.5598355,128.354632 58.7757155,129.729669 58.7757155,131.390819 L58.7757155,131.427036 C58.7757155,133.05197 57.6506277,134.410106 55.8715903,134.410106 Z M62.8871323,136.088157 L65.1017272,136.088157 L65.1017272,130.765473 C65.1017272,129.301102 65.9912459,128.425859 67.2623375,128.425859 C68.5690098,128.425859 69.3137517,129.264885 69.3137517,130.730464 L69.3137517,136.088157 L71.5099427,136.088157 L71.5099427,130.068901 C71.5099427,127.889848 70.2572549,126.460486 68.0966447,126.460486 C66.6083879,126.460486 65.7188691,127.229492 65.1017272,128.104735 L65.1017272,126.657264 L62.8871323,126.657264 L62.8871323,136.088157 Z M79.5610072,136.088157 L81.7927789,136.088157 L81.7927789,132.462841 L83.7718047,130.462458 L88.1102022,136.088157 L90.8327429,136.088157 L85.2968692,128.961869 L90.5971738,123.58486 L87.8206485,123.58486 L81.7927789,129.873329 L81.7927789,123.58486 L79.5610072,123.58486 L79.5610072,136.088157 Z M95.5981093,126.443584 C93.8190719,126.443584 92.584788,127.122049 91.6584616,128.212179 L92.947957,129.337318 C93.7098758,128.604529 94.4730215,128.212179 95.5613016,128.212179 C96.9599931,128.212179 98.0666771,129.051205 98.3022462,130.604912 L91.2597119,130.604912 C91.241308,130.819799 91.2229042,131.01537 91.2229042,131.212149 C91.2229042,133.909104 92.7663725,136.284936 95.8165015,136.284936 C98.557446,136.284936 100.518068,134.069666 100.518068,131.354602 L100.518068,131.319593 C100.518068,128.425859 98.3574577,126.443584 95.5981093,126.443584 Z M98.3390539,132.034274 C98.1206617,133.498646 97.1771584,134.516342 95.8336784,134.516342 C94.3822293,134.516342 93.5466951,133.427419 93.4019183,132.034274 L98.3390539,132.034274 Z M102.413663,136.088157 L104.628258,136.088157 L104.628258,130.765473 C104.628258,129.301102 105.517777,128.425859 106.788868,128.425859 C108.09554,128.425859 108.840282,129.264885 108.840282,130.730464 L108.840282,136.088157 L111.036473,136.088157 L111.036473,130.068901 C111.036473,127.889848 109.783786,126.460486 107.624402,126.460486 C106.134919,126.460486 105.2454,127.229492 104.628258,128.104735 L104.628258,126.657264 L102.413663,126.657264 L102.413663,136.088157 Z M117.344081,136.284936 C118.905953,136.284936 119.903441,135.499028 120.612602,134.516342 L120.612602,136.088157 L122.808793,136.088157 L122.808793,123.050056 L120.612602,123.050056 L120.612602,128.122843 C119.921845,127.229492 118.924357,126.460486 117.344081,126.460486 C115.057098,126.460486 112.896488,128.22908 112.896488,131.354602 L112.896488,131.390819 C112.896488,134.516342 115.093906,136.284936 117.344081,136.284936 Z M117.870431,134.410106 C116.382174,134.410106 115.112309,133.212532 115.112309,131.390819 L115.112309,131.354602 C115.112309,129.49788 116.36377,128.336523 117.870431,128.336523 C119.341511,128.336523 120.648183,129.53289 120.648183,131.354602 L120.648183,131.390819 C120.648183,133.194423 119.341511,134.410106 117.870431,134.410106 Z M134.071941,136.088157 L136.304939,136.088157 L136.304939,125.62146 L140.353783,125.62146 L140.353783,123.58486 L130.024324,123.58486 L130.024324,125.62146 L134.071941,125.62146 L134.071941,136.088157 Z M144.228404,126.443584 C142.449366,126.443584 141.215083,127.122049 140.288756,128.212179 L141.578252,129.337318 C142.34017,128.604529 143.103316,128.212179 144.191596,128.212179 C145.590288,128.212179 146.696972,129.051205 146.932541,130.604912 L139.890006,130.604912 C139.871603,130.819799 139.853199,131.01537 139.853199,131.212149 C139.853199,133.909104 141.396667,136.284936 144.446796,136.284936 C147.187741,136.284936 149.148363,134.069666 149.148363,131.354602 L149.148363,131.319593 C149.148363,128.425859 146.987752,126.443584 144.228404,126.443584 Z M146.969348,132.034274 C146.750956,133.498646 145.807453,134.516342 144.463973,134.516342 C143.012524,134.516342 142.17699,133.427419 142.032213,132.034274 L146.969348,132.034274 Z M154.348059,136.266828 C156.345489,136.266828 157.906134,135.284141 157.906134,133.301867 L157.906134,133.266857 C157.906134,131.56949 156.327085,130.944144 154.929621,130.515576 C153.803306,130.158236 152.76901,129.873329 152.76901,129.175549 L152.76901,129.14054 C152.76901,128.622637 153.258552,128.212179 154.11249,128.212179 C154.911217,128.212179 155.891528,128.550203 156.816627,129.104323 L157.687742,127.568724 C156.67185,126.907161 155.363951,126.496703 154.166475,126.496703 C152.261065,126.496703 150.754404,127.586833 150.754404,129.390437 L150.754404,129.426654 C150.754404,131.212149 152.333453,131.784377 153.749321,132.176727 C154.874409,132.515959 155.891528,132.765856 155.891528,133.498646 L155.891528,133.534863 C155.891528,134.159001 155.346774,134.552559 154.402044,134.552559 C153.421733,134.552559 152.315049,134.159001 151.26235,133.391202 L150.282039,134.855574 C151.479515,135.803251 152.986176,136.266828 154.348059,136.266828 Z M163.687392,126.443584 C161.908355,126.443584 160.674071,127.122049 159.747745,128.212179 L161.03724,129.337318 C161.799159,128.604529 162.562305,128.212179 163.650585,128.212179 C165.049276,128.212179 166.15596,129.051205 166.391529,130.604912 L159.348995,130.604912 C159.330591,130.819799 159.312187,131.01537 159.312187,131.212149 C159.312187,133.909104 160.855656,136.284936 163.905785,136.284936 C166.646729,136.284936 168.606124,134.069666 168.606124,131.354602 L168.606124,131.319593 C168.606124,128.425859 166.446741,126.443584 163.687392,126.443584 Z M166.428337,132.034274 C166.209945,133.498646 165.266442,134.516342 163.922962,134.516342 C162.471512,134.516342 161.635978,133.427419 161.491201,132.034274 L166.428337,132.034274 Z M170.502946,136.088157 L172.717541,136.088157 L172.717541,132.499058 C172.717541,129.997674 174.061021,128.765091 175.984835,128.765091 L176.112435,128.765091 L176.112435,126.478594 C174.42419,126.407367 173.316279,127.371945 172.717541,128.783199 L172.717541,126.657264 L170.502946,126.657264 L170.502946,136.088157 Z M177.700073,136.088157 L179.914668,136.088157 L179.914668,132.499058 C179.914668,129.997674 181.258148,128.765091 183.181962,128.765091 L183.309562,128.765091 L183.309562,126.478594 C181.621317,126.407367 180.513406,127.371945 179.914668,128.783199 L179.914668,126.657264 L177.700073,126.657264 L177.700073,136.088157 Z M189.744769,125.460898 L191.977768,125.460898 L191.977768,123.334963 L189.744769,123.334963 L189.744769,125.460898 Z M186.203872,125.460898 L188.43687,125.460898 L188.43687,123.334963 L186.203872,123.334963 L186.203872,125.460898 Z M188.219705,136.284936 C189.707962,136.284936 190.597481,135.517137 191.214622,134.623786 L191.214622,136.088157 L193.429217,136.088157 L193.429217,126.657264 L191.214622,126.657264 L191.214622,131.979948 C191.214622,133.445528 190.325104,134.302662 189.054012,134.302662 C187.74734,134.302662 187.002598,133.480537 187.002598,132.016165 L187.002598,126.657264 L184.806407,126.657264 L184.806407,132.658413 C184.806407,134.855574 186.059095,136.284936 188.219705,136.284936 Z M196.360335,136.088157 L198.557753,136.088157 L198.557753,128.515194 L201.061901,128.515194 L201.061901,126.728491 L198.520945,126.728491 L198.520945,126.210589 C198.520945,125.246011 198.956503,124.782434 199.792037,124.782434 C200.263175,124.782434 200.644748,124.871769 201.080305,125.014222 L201.080305,123.19251 C200.590763,123.050056 200.064413,122.942613 199.282864,122.942613 C198.357764,122.942613 197.64983,123.19251 197.141884,123.692304 C196.632712,124.192097 196.360335,124.978005 196.360335,126.01381 L196.360335,126.71159 L195.144455,126.71159 L195.144455,128.515194 L196.360335,128.515194 L196.360335,136.088157 Z M204.882538,136.284936 C206.353617,136.284936 207.352332,135.677699 208.005055,134.909899 L208.005055,136.088157 L210.147261,136.088157 L210.147261,130.497468 C210.147261,129.264885 209.8209,128.265297 209.112966,127.586833 C208.440612,126.907161 207.370736,126.532919 205.935237,126.532919 C204.411399,126.532919 203.375877,126.835935 202.304774,127.300719 L202.904739,128.996879 C203.775854,128.639539 204.57458,128.40775 205.645683,128.40775 C207.189152,128.40775 208.023459,129.122431 208.023459,130.462458 L208.023459,130.694247 C207.279944,130.462458 206.516798,130.300689 205.445695,130.300689 C203.1035,130.300689 201.470466,131.301484 201.470466,133.338084 L201.470466,133.373094 C201.470466,135.26724 203.086323,136.284936 204.882538,136.284936 Z M205.499679,134.713121 C204.44698,134.713121 203.62985,134.195218 203.62985,133.283758 L203.62985,133.248749 C203.62985,132.266062 204.465384,131.676933 205.881252,131.676933 C206.752367,131.676933 207.497109,131.837495 208.060266,132.052382 L208.060266,132.694629 C208.060266,133.892203 206.952356,134.713121 205.499679,134.713121 Z M215.602158,136.249926 C216.436465,136.249926 217.03643,136.071256 217.579957,135.767034 L217.579957,133.99844 C217.1444,134.213327 216.708842,134.32077 216.2193,134.32077 C215.474558,134.32077 215.039001,133.981538 215.039001,133.141305 L215.039001,128.515194 L217.616765,128.515194 L217.616765,126.657264 L215.039001,126.657264 L215.039001,124.067753 L212.84281,124.067753 L212.84281,126.657264 L211.62693,126.657264 L211.62693,128.515194 L212.84281,128.515194 L212.84281,133.480537 C212.84281,135.552147 213.986301,136.249926 215.602158,136.249926 Z M219.658363,136.088157 L221.872958,136.088157 L221.872958,126.657264 L219.658363,126.657264 L219.658363,136.088157 Z M230.268788,136.088157 L232.501787,136.088157 L232.501787,123.58486 L230.268788,123.58486 L230.268788,136.088157 Z M230.23198,122.549055 L232.555771,122.549055 L232.555771,120.548673 L230.23198,120.548673 L230.23198,122.549055 Z M235.323708,136.088157 L237.538303,136.088157 L237.538303,130.765473 C237.538303,129.301102 238.427822,128.425859 239.698913,128.425859 C241.005586,128.425859 241.750327,129.264885 241.750327,130.730464 L241.750327,136.088157 L243.946518,136.088157 L243.946518,130.068901 C243.946518,127.889848 242.693831,126.460486 240.53322,126.460486 C239.044964,126.460486 238.155445,127.229492 237.538303,128.104735 L237.538303,126.657264 L235.323708,126.657264 L235.323708,136.088157 Z M246.786844,136.088157 L248.983035,136.088157 L248.983035,128.515194 L251.48841,128.515194 L251.48841,126.728491 L248.947454,126.728491 L248.947454,126.210589 C248.947454,125.246011 249.383011,124.782434 250.217319,124.782434 C250.689684,124.782434 251.071257,124.871769 251.506814,125.014222 L251.506814,123.19251 C251.016045,123.050056 250.489695,122.942613 249.709373,122.942613 C248.784273,122.942613 248.075112,123.19251 247.567166,123.692304 C247.05922,124.192097 246.786844,124.978005 246.786844,126.01381 L246.786844,126.71159 L245.570964,126.71159 L245.570964,128.515194 L246.786844,128.515194 L246.786844,136.088157 Z M257.19728,136.303045 C260.156617,136.303045 262.334404,134.069666 262.334404,131.390819 L262.334404,131.354602 C262.334404,128.657647 260.173794,126.460486 257.232861,126.460486 C254.293155,126.460486 252.114141,128.693864 252.114141,131.390819 L252.114141,131.427036 C252.114141,134.105883 254.274751,136.303045 257.19728,136.303045 Z M257.232861,134.410106 C255.527439,134.410106 254.310332,133.033862 254.310332,131.390819 L254.310332,131.354602 C254.310332,129.71156 255.436646,128.354632 257.19728,128.354632 C258.922333,128.354632 260.138213,129.729669 260.138213,131.390819 L260.138213,131.427036 C260.138213,133.05197 259.013125,134.410106 257.232861,134.410106 Z M264.24963,136.088157 L266.464224,136.088157 L266.464224,132.499058 C266.464224,129.997674 267.807704,128.765091 269.731519,128.765091 L269.857892,128.765091 L269.857892,126.478594 C268.169647,126.407367 267.062963,127.371945 266.464224,128.783199 L266.464224,126.657264 L264.24963,126.657264 L264.24963,136.088157 Z M271.446756,136.088157 L273.661351,136.088157 L273.661351,130.765473 C273.661351,129.31921 274.495658,128.425859 275.712765,128.425859 C276.928645,128.425859 277.654983,129.247983 277.654983,130.712355 L277.654983,136.088157 L279.851174,136.088157 L279.851174,130.765473 C279.851174,129.247983 280.705112,128.425859 281.902588,128.425859 C283.136872,128.425859 283.844807,129.229875 283.844807,130.730464 L283.844807,136.088157 L286.040998,136.088157 L286.040998,130.068901 C286.040998,127.765503 284.771133,126.460486 282.682911,126.460486 C281.230235,126.460486 280.214343,127.122049 279.452425,128.122843 C278.943252,127.122049 277.962941,126.460486 276.58388,126.460486 C275.1128,126.460486 274.278493,127.246393 273.661351,128.086627 L273.661351,126.657264 L271.446756,126.657264 L271.446756,136.088157 Z M291.151129,136.284936 C292.620982,136.284936 293.619697,135.677699 294.273647,134.909899 L294.273647,136.088157 L296.415853,136.088157 L296.415853,130.497468 C296.415853,129.264885 296.088265,128.265297 295.380331,127.586833 C294.709204,126.907161 293.638101,126.532919 292.203829,126.532919 C290.678764,126.532919 289.644469,126.835935 288.573365,127.300719 L289.172103,128.996879 C290.043218,128.639539 290.841945,128.40775 291.913048,128.40775 C293.456516,128.40775 294.29205,129.122431 294.29205,130.462458 L294.29205,130.694247 C293.547309,130.462458 292.784163,130.300689 291.714287,130.300689 C289.372092,130.300689 287.737831,131.301484 287.737831,133.338084 L287.737831,133.373094 C287.737831,135.26724 289.353688,136.284936 291.151129,136.284936 Z M291.768271,134.713121 C290.715572,134.713121 289.898442,134.195218 289.898442,133.283758 L289.898442,133.248749 C289.898442,132.266062 290.733976,131.676933 292.149844,131.676933 C293.020959,131.676933 293.765701,131.837495 294.327631,132.052382 L294.327631,132.694629 C294.327631,133.892203 293.220947,134.713121 291.768271,134.713121 Z M302.032704,136.266828 C304.030133,136.266828 305.590778,135.284141 305.590778,133.301867 L305.590778,133.266857 C305.590778,131.56949 304.011729,130.944144 302.614265,130.515576 C301.48795,130.158236 300.453655,129.873329 300.453655,129.175549 L300.453655,129.14054 C300.453655,128.622637 300.944423,128.212179 301.797135,128.212179 C302.595861,128.212179 303.576172,128.550203 304.502498,129.104323 L305.373613,127.568724 C304.356495,126.907161 303.049822,126.496703 301.851119,126.496703 C299.945709,126.496703 298.439048,127.586833 298.439048,129.390437 L298.439048,129.426654 C298.439048,131.212149 300.018097,131.784377 301.433966,132.176727 C302.559053,132.515959 303.576172,132.765856 303.576172,133.498646 L303.576172,133.534863 C303.576172,134.159001 303.031418,134.552559 302.087915,134.552559 C301.107604,134.552559 299.999693,134.159001 298.946994,133.391202 L297.966683,134.855574 C299.165386,135.803251 300.672047,136.266828 302.032704,136.266828 Z M307.578393,125.211001 L309.938991,125.211001 L309.938991,123.156293 L307.578393,123.156293 L307.578393,125.211001 Z M307.650781,136.088157 L309.865376,136.088157 L309.865376,126.657264 L307.650781,126.657264 L307.650781,136.088157 Z M316.57296,133.659208 L313.886001,126.657264 L311.525402,126.657264 L315.520261,136.106266 C315.157092,136.910282 314.775519,137.178288 314.158377,137.178288 C313.704416,137.178288 313.268859,137.034627 312.870109,136.820947 L312.125367,138.410871 C312.796493,138.78632 313.486024,139 314.393946,139 C315.937415,139 316.790126,138.285319 317.553271,136.339262 L321.365319,126.657264 L319.078336,126.657264 L316.57296,133.659208 Z M325.258344,136.284936 C326.729424,136.284936 327.726912,135.677699 328.380861,134.909899 L328.380861,136.088157 L330.523068,136.088157 L330.523068,130.497468 C330.523068,129.264885 330.195479,128.265297 329.487545,127.586833 C328.816419,126.907161 327.745315,126.532919 326.311043,126.532919 C324.785979,126.532919 323.751683,126.835935 322.68058,127.300719 L323.279318,128.996879 C324.15166,128.639539 324.949159,128.40775 326.020263,128.40775 C327.563731,128.40775 328.399265,129.122431 328.399265,130.462458 L328.399265,130.694247 C327.654523,130.462458 326.892604,130.300689 325.821501,130.300689 C323.479306,130.300689 321.845046,131.301484 321.845046,133.338084 L321.845046,133.373094 C321.845046,135.26724 323.460903,136.284936 325.258344,136.284936 Z M325.875486,134.713121 C324.822786,134.713121 324.005656,134.195218 324.005656,133.283758 L324.005656,133.248749 C324.005656,132.266062 324.84119,131.676933 326.257059,131.676933 C327.128174,131.676933 327.872915,131.837495 328.434846,132.052382 L328.434846,132.694629 C328.434846,133.892203 327.328162,134.713121 325.875486,134.713121 Z M343.002095,136.266828 C345.670651,136.266828 347.540481,134.873682 347.540481,132.534068 L347.540481,132.499058 C347.540481,130.426241 346.16142,129.479772 343.47446,128.836317 C341.024296,128.265297 340.442735,127.83673 340.442735,126.872152 L340.442735,126.835935 C340.442735,126.01381 341.205881,125.353454 342.512553,125.353454 C343.674448,125.353454 344.81794,125.80013 345.961432,126.639156 L347.160135,124.978005 C345.870639,123.960309 344.400786,123.40619 342.549361,123.40619 C340.025581,123.40619 338.209736,124.88867 338.209736,127.032713 L338.209736,127.06893 C338.209736,129.372328 339.734801,130.158236 342.440165,130.80169 C344.799536,131.337701 345.308709,131.819387 345.308709,132.712738 L345.308709,132.747748 C345.308709,133.677316 344.436367,134.32077 343.057306,134.32077 C341.495434,134.32077 340.26115,133.730434 339.04527,132.694629 L337.70179,134.266445 C339.226855,135.606472 341.059877,136.266828 343.002095,136.266828 Z M349.654468,125.211001 L352.015067,125.211001 L352.015067,123.156293 L349.654468,123.156293 L349.654468,125.211001 Z M349.728083,136.088157 L351.942678,136.088157 L351.942678,126.657264 L349.728083,126.657264 L349.728083,136.088157 Z M357.796325,136.266828 C359.792527,136.266828 361.3544,135.284141 361.3544,133.301867 L361.3544,133.266857 C361.3544,131.56949 359.775351,130.944144 358.376659,130.515576 C357.251571,130.158236 356.216049,129.873329 356.216049,129.175549 L356.216049,129.14054 C356.216049,128.622637 356.706818,128.212179 357.559529,128.212179 C358.358255,128.212179 359.338566,128.550203 360.264893,129.104323 L361.136007,127.568724 C360.118889,126.907161 358.812216,126.496703 357.61474,126.496703 C355.708103,126.496703 354.201442,127.586833 354.201442,129.390437 L354.201442,129.426654 C354.201442,131.212149 355.781718,131.784377 357.19636,132.176727 C358.322674,132.515959 359.338566,132.765856 359.338566,133.498646 L359.338566,133.534863 C359.338566,134.159001 358.793813,134.552559 357.850309,134.552559 C356.869998,134.552559 355.762087,134.159001 354.709388,133.391202 L353.729077,134.855574 C354.92778,135.803251 356.434441,136.266828 357.796325,136.266828 Z M366.336931,136.249926 C367.171238,136.249926 367.769977,136.071256 368.31473,135.767034 L368.31473,133.99844 C367.879173,134.213327 367.443615,134.32077 366.952846,134.32077 C366.209331,134.32077 365.773774,133.981538 365.773774,133.141305 L365.773774,128.515194 L368.351538,128.515194 L368.351538,126.657264 L365.773774,126.657264 L365.773774,124.067753 L363.577583,124.067753 L363.577583,126.657264 L362.360476,126.657264 L362.360476,128.515194 L363.577583,128.515194 L363.577583,133.480537 C363.577583,135.552147 364.721075,136.249926 366.336931,136.249926 Z M374.405173,136.303045 C376.165806,136.303045 377.418494,135.606472 378.326417,134.53445 L377.036921,133.409311 C376.275002,134.1421 375.511857,134.53445 374.440753,134.53445 C373.024885,134.53445 371.918201,133.677316 371.682632,132.141717 L378.725166,132.141717 C378.74357,131.92683 378.761974,131.730051 378.761974,131.533273 C378.761974,128.818209 377.218506,126.460486 374.169604,126.460486 C371.427432,126.460486 369.485214,128.675756 369.485214,131.372711 L369.485214,131.408928 C369.485214,134.32077 371.62742,136.303045 374.405173,136.303045 Z M371.664228,130.712355 C371.86299,129.247983 372.80772,128.22908 374.1512,128.22908 C375.602649,128.22908 376.438183,129.31921 376.58296,130.712355 L371.664228,130.712355 Z M380.657569,136.088157 L382.873391,136.088157 L382.873391,130.765473 C382.873391,129.31921 383.707698,128.425859 384.923578,128.425859 C386.140685,128.425859 386.867023,129.247983 386.867023,130.712355 L386.867023,136.088157 L389.063214,136.088157 L389.063214,130.765473 C389.063214,129.247983 389.915925,128.425859 391.114628,128.425859 C392.348912,128.425859 393.056846,129.229875 393.056846,130.730464 L393.056846,136.088157 L395.253037,136.088157 L395.253037,130.068901 C395.253037,127.765503 393.983173,126.460486 391.894951,126.460486 C390.442275,126.460486 389.426383,127.122049 388.663237,128.122843 C388.155292,127.122049 387.174981,126.460486 385.79592,126.460486 C384.32484,126.460486 383.489306,127.246393 382.873391,128.086627 L382.873391,126.657264 L380.657569,126.657264 L380.657569,136.088157 Z M397.639401,125.211001 L400,125.211001 L400,123.156293 L397.639401,123.156293 L397.639401,125.211001 Z M397.71179,136.088157 L399.926385,136.088157 L399.926385,126.657264 L397.71179,126.657264 L397.71179,136.088157 Z" id="Fill-1" fill="#828282"></path>
                <path d="M140.687242,89.5869918 C150.882371,89.5869918 157.908926,85.8358912 163.007104,80.1387215 L163.007104,88.1976494 L183.258745,88.1976494 L183.258745,44.9857622 C183.258745,34.9820025 180.778351,26.7845115 175.268001,21.2259049 C170.032432,15.9456617 161.766907,12.8898509 150.331581,12.8898509 C137.794676,12.8898509 129.803932,15.2516091 121.675798,18.8641467 L126.91014,34.9820025 C133.661914,32.4804439 139.309654,30.9525385 147.300398,30.9525385 C157.771535,30.9525385 163.144495,35.8158553 163.144495,44.5688358 L163.144495,45.819615 C157.908926,44.0133463 152.535967,42.762567 145.096013,42.762567 C127.599547,42.762567 115.337423,50.2660054 115.337423,66.5224243 L115.337423,66.8007876 C115.337423,81.5280639 126.772749,89.5869918 140.687242,89.5869918 Z M147.025617,74.9982786 C140.273843,74.9982786 135.590291,71.6641044 135.590291,65.9669348 L135.590291,65.6885714 C135.590291,59.0189859 141.100641,55.4064484 150.055573,55.4064484 C155.153751,55.4064484 159.837303,56.5186645 163.419276,58.185133 L163.419276,61.9374708 C163.419276,69.5794723 156.80612,74.9982786 147.025617,74.9982786 Z M225.656055,110.707965 C239.983947,110.707965 250.592475,107.650917 257.480413,100.702968 C263.68017,94.4503086 266.848744,84.7249122 266.848744,71.3857411 L266.848744,13.7224665 L245.907696,13.7224665 L245.907696,23.4491001 C240.259955,17.196441 233.508182,12.3331242 222.074083,12.3331242 C205.128407,12.3331242 189.28431,24.8384425 189.28431,47.0703943 L189.28431,47.3475205 C189.28431,69.4409092 204.852398,82.0847906 222.074083,82.0847906 C233.2334,82.0847906 239.983947,77.4985999 246.183704,69.9963987 L246.183704,73.6089362 C246.183704,86.9481073 239.433157,93.8948191 225.105266,93.8948191 C215.322309,93.8948191 207.744964,91.3944977 200.168846,87.0866704 L193.003674,102.926163 C202.372005,107.928043 213.66994,110.707965 225.656055,110.707965 Z M228.135222,64.5775924 C217.940093,64.5775924 210.225358,57.6296435 210.225358,47.3475205 L210.225358,47.0703943 C210.225358,36.9268343 217.940093,29.8403223 228.135222,29.8403223 C238.330351,29.8403223 246.183704,36.9268343 246.183704,47.0703943 L246.183704,47.3475205 C246.183704,57.4910805 238.330351,64.5775924 228.135222,64.5775924 Z M276.869681,88.1976494 L297.810729,88.1976494 L297.810729,60.6866916 C297.810729,42.9023673 306.352262,34.426513 320.267982,34.426513 L321.369561,34.426513 L321.369561,12.3331242 C308.970047,11.7776347 302.082109,18.4472202 297.810729,28.7293433 L297.810729,13.7224665 L276.869681,13.7224665 L276.869681,88.1976494 Z M359.908891,89.8653551 C382.916933,89.8653551 400,72.4967201 400,51.0998582 L400,50.8214949 C400,29.4233959 383.054324,12.3331242 360.184899,12.3331242 C337.176857,12.3331242 320.09379,29.7017592 320.09379,51.0998582 L320.09379,51.3769844 C320.09379,72.7750834 337.039466,89.8653551 359.908891,89.8653551 Z M360.184899,71.6641044 C348.612182,71.6641044 340.75883,62.0760339 340.75883,51.0998582 L340.75883,50.8214949 C340.75883,39.8453192 347.924002,30.5356121 359.908891,30.5356121 C371.481607,30.5356121 379.33496,40.1224454 379.33496,51.0998582 L379.33496,51.3769844 C379.33496,62.3543972 372.171015,71.6641044 360.184899,71.6641044 L360.184899,71.6641044 Z" id="Fill-2" fill="#828282"></path>
                <path d="M96.9109915,49.6236672 C96.8999868,49.0455977 97.3585141,48.5679556 97.9356472,48.5569331 C98.5127802,48.5446859 98.9896486,49.0051819 99.0006532,49.5832513 C99.0336672,51.0100541 99.0348899,52.2458 98.9933168,53.4656245 C98.9505209,54.7062693 98.8637064,55.9199702 98.7206459,57.2855368 C97.6226259,67.7814164 93.2684507,76.7463918 86.940774,83.6709779 C81.8407277,89.2532672 75.4629187,93.5055069 68.4774082,96.1631567 C61.4918976,98.8220312 53.8950174,99.8875406 46.3580514,99.0963692 C36.9881989,98.1116916 27.7161656,94.2587118 19.8270506,87.0291695 C14.9360928,82.5442324 10.9634123,77.0501232 8.24770797,70.887315 C5.63349101,64.9523054 4.17598558,58.396361 4.17598558,51.5232132 L4.18332201,50.9267729 C4.35083732,38.3108971 9.80180982,26.5719232 18.365877,17.991511 C26.9360578,9.40742466 38.6278925,3.9733269 51.2722413,3.9733269 L51.8591562,3.98067524 C63.1927282,4.15091179 72.3999563,7.80916061 79.0210905,13.1807975 C83.8154519,17.070519 87.2562407,21.8591875 89.169828,26.8793288 C91.0980881,31.9362117 91.4808056,37.2355899 90.1431286,42.1026407 C88.8568067,46.7835336 85.9907054,51.0467958 81.3919823,54.2947623 C75.3748814,58.5433278 67.2620051,60.4036826 58.9375949,60.5396269 C49.3574313,60.6963915 39.4679145,58.5678222 32.1938375,55.1741137 C31.6692823,54.929169 31.4418527,54.3057848 31.6864006,53.7791537 C31.9309485,53.2537474 32.5545456,53.0259488 33.0791009,53.2696688 C40.0976254,56.5445792 49.6472205,58.5972156 58.9045809,58.4465746 C66.8389373,58.3179787 74.5360822,56.5690736 80.1863612,52.5789248 C84.3669074,49.6273414 86.9676742,45.7719121 88.1268312,41.5527399 C89.343457,37.1265895 88.9851943,32.2766848 87.2109994,27.6264101 C85.4233543,22.9369441 82.2002131,18.4556812 77.7017546,14.8060054 C71.4180966,9.70870662 62.6535001,6.23661575 51.8334787,6.07372754 L51.2722413,6.07495226 C39.2099165,6.07495226 28.042637,11.270229 19.8502827,19.4783252 C11.6518146,27.6913204 6.43316261,38.9110115 6.27420648,50.9512674 L6.27420648,51.5232132 C6.27420648,58.0999779 7.66568399,64.369337 10.1661862,70.0422558 C12.7681757,75.9466474 16.5647818,81.2031603 21.2368692,85.486018 C28.7713898,92.3910086 37.6264689,96.0713024 46.570808,97.0106653 C53.7800799,97.7675443 61.0504887,96.7473497 67.7388735,94.2023745 C74.4272584,91.6573993 80.5287282,87.5913176 85.4001222,82.2588718 C91.4355642,75.6527138 95.5904329,67.0955713 96.6395433,57.0712102 C96.7789356,55.7362617 96.8633047,54.5691003 96.9036551,53.4007142 C96.9440055,52.2115078 96.9427827,51.0088294 96.9109915,49.6236672 Z M69.1804833,69.722603 C69.5974375,69.3221185 70.2589395,69.3343657 70.6599981,69.7507717 C71.0610566,70.1684024 71.0476065,70.8322024 70.6318751,71.232687 C65.1160974,76.5761552 58.3555709,78.9876356 51.7209866,78.9876356 C47.9891858,78.9876356 44.290399,78.219734 40.8703967,76.7782346 C37.4552854,75.3379599 34.3238496,73.2240873 31.7230828,70.5296958 C27.1720465,65.8169601 24.2411401,59.3369485 24.2411401,51.5917977 C24.2411401,44.0830185 27.3713531,37.4131748 32.3320071,32.5706185 C37.4088213,27.6166123 44.4114502,24.580523 51.944748,24.5278598 C58.2027285,24.4849945 62.7672149,25.9632357 65.305622,27.9325909 C66.4073103,28.7862231 67.1568495,29.7464063 67.534676,30.739657 C67.9467392,31.8223125 67.9235072,32.9282377 67.4417478,33.9753762 C66.8364918,35.2944033 65.4939239,36.4750367 63.3712482,37.3164217 C60.4220006,38.4860325 56.956757,38.7542469 53.4719495,38.4321447 C49.4087863,38.0573793 45.3052727,36.8755212 41.9879806,35.3960554 C41.4609798,35.1596837 41.2237684,34.5411984 41.4597571,34.0121179 C41.6945231,33.4842621 42.3132292,33.2478905 42.84023,33.4830374 C45.970443,34.8792221 49.8367451,35.9937204 53.6602514,36.3476655 C56.8357058,36.6403743 59.9720325,36.4064522 62.6009223,35.3629878 C64.1904836,34.7322553 65.155225,33.9374098 65.540388,33.0972495 C65.7763767,32.5853151 65.7837131,32.0341896 65.5758474,31.4855135 C65.3325223,30.8474326 64.8116353,30.1995539 64.0278593,29.5908664 C61.8098099,27.8713547 57.7050735,26.581721 51.9520844,26.6221369 C44.980024,26.6699011 38.4946139,29.4830908 33.7907352,34.0733541 C29.2213579,38.532572 26.3405837,44.6757846 26.3405837,51.5917977 C26.3405837,58.7539802 29.0391697,64.7355293 33.2307206,69.0771738 C35.6334036,71.5658118 38.5264051,73.5180209 41.6822957,74.8492952 C44.834518,76.1781201 48.2569658,76.8860102 51.7209866,76.8860102 C57.8444658,76.8860102 64.085328,74.6582384 69.1804833,69.722603 Z M100.54375,44.9048079 C100.477722,44.3291879 100.891008,43.8086805 101.465696,43.7437701 C102.040384,43.677635 102.560048,44.0915916 102.624853,44.6672116 C102.765468,45.8735641 102.863287,47.1142089 102.930538,48.2311567 C103.057703,50.368299 103.067485,52.073114 103.067485,52.1392491 C102.937874,66.3791081 97.5578207,78.3250602 89.2358559,87.089181 C84.2739792,92.313851 78.2617693,96.4068766 71.6932129,99.1759763 C65.1283248,101.945076 58.0058674,103.39025 50.8149367,103.325339 C38.625447,103.215114 26.2476555,98.7681434 16.0646813,89.0658845 C11.0013172,84.241699 6.90514004,78.427937 4.11729408,71.9246557 C1.44683111,65.6969372 -0.0253472001,58.8323625 0.000330328548,51.5954719 C0.001553068,51.368898 0.00277580746,51.152122 0.00644402583,50.9451437 C0.230205347,37.0396342 6.06144982,24.2804657 15.3029146,15.011759 C24.5517159,5.7369286 37.2156285,-0.0498894964 51.0973895,0.000324163264 C51.3138144,0.000324163264 51.5241256,0.00277361008 51.7246549,0.00522305689 C63.8762396,0.201178802 73.8452344,4.1251926 81.1621073,9.94752768 C86.8013817,14.4349142 90.8694358,20.0539452 93.1547359,25.9742582 C95.4547088,31.9276387 95.951141,38.1884247 94.4337214,43.9164561 C93.027571,49.2256321 89.8985807,54.0681884 84.8816807,57.7778756 C78.5601177,62.4526449 70.0902015,64.8041138 61.3769601,65.3148235 C51.6647406,65.8843199 41.6138223,64.1635835 33.9117864,60.8249875 C33.3823403,60.5959642 33.1390151,59.9811531 33.3676674,59.4496231 C33.5963197,58.9193179 34.2101349,58.6755979 34.739581,58.9046212 C42.1542731,62.1182954 51.8591562,63.7728967 61.2620226,63.2217712 C69.5974375,62.7331065 77.6687407,60.5090088 83.6357092,56.0951057 C88.2478824,52.684251 91.1213202,48.2446286 92.4100876,43.3824767 C93.8125697,38.0843232 93.3454832,32.2730107 91.2044664,26.7286878 C89.0499995,21.148848 85.2020385,15.8408967 79.8598898,11.588657 C72.8743792,6.03208695 63.339457,2.28688277 51.6916409,2.09950008 C51.4849979,2.09582591 51.2869141,2.09337647 51.0973895,2.09337647 C37.795207,2.04561225 25.6558496,7.59483401 16.7860976,16.4900001 C7.91145462,25.3912898 2.3113079,37.6372992 2.09610576,50.9782113 C2.09366028,51.1913132 2.0912148,51.3982914 2.0912148,51.5954719 C2.06553727,58.5310805 3.47902408,65.1164183 6.04310873,71.0967427 C8.72090814,77.3403826 12.6507928,82.9202225 17.5062911,87.5472275 C27.2796476,96.8575749 39.1487795,101.126961 50.832055,101.232287 C57.735642,101.294748 64.5768693,99.9059114 70.8825367,97.2470369 C77.1857586,94.5893871 82.9546433,90.6616991 87.719659,85.6440073 C95.6968112,77.2448542 100.854326,65.786342 100.9766,52.1221029 C100.977823,52.0620915 100.966818,50.47485 100.839653,48.3548537 C100.776071,47.2905691 100.683143,46.0940143 100.54375,44.9048079 Z M75.6964619,68.124339 C76.0241561,67.6491463 76.6758762,67.5291234 77.1515219,67.8573493 C77.6259448,68.1867999 77.7457732,68.8383527 77.4168563,69.3147701 C72.40607,76.5479866 65.1124292,81.0806879 57.2661101,82.5613785 C49.4369093,84.0383949 41.061144,82.4780973 33.8530949,77.5326642 C29.7055627,74.686407 26.2036369,70.8273035 23.7850583,66.2296919 C21.5168766,61.9174408 20.2012089,56.9597604 20.2012089,51.5856741 L20.2048771,51.5856741 L20.2048771,51.5134154 C20.2268864,43.1314084 23.898773,35.3078753 29.6542076,29.5871922 C35.410865,23.8652845 43.2596296,20.2339796 51.6353949,20.2339796 L51.7124275,20.2339796 C59.5159507,20.2768449 65.3912138,22.4752234 68.8980305,25.4488518 C70.5731836,26.8683063 71.7262269,28.4763681 72.3143646,30.1321942 C72.9257343,31.8517058 72.9294025,33.6104086 72.2789051,35.26501 C71.4743426,37.3127475 69.6756928,39.1596304 66.7998096,40.5007025 C62.6950733,42.4161699 58.0388814,43.0958914 53.3704622,42.8693176 C48.1542556,42.6157999 42.9135943,41.2257388 38.423695,39.165754 C38.3381033,39.1265629 38.2329477,39.0775739 38.109451,39.0200119 C38.020191,38.9783713 37.9162582,38.9281577 37.7976524,38.8718204 C37.2779882,38.6232015 37.0566723,37.9973679 37.3061112,37.4768604 C37.5543273,36.9551283 38.1791471,36.7346781 38.6988114,36.9832969 C38.7831804,37.0237128 38.8809996,37.0702523 38.9947144,37.1241401 C39.0754152,37.1608818 39.1744571,37.2074213 39.2930628,37.2613091 C43.5543098,39.2171924 48.5247457,40.5349948 53.4695041,40.7750406 C57.8138973,40.9869177 62.1326131,40.3610841 65.9145463,38.5974824 C68.2719879,37.4976807 69.717266,36.057406 70.3286357,34.5007826 C70.7883857,33.3311717 70.7810493,32.072156 70.3396403,30.8290618 C69.8749994,29.5222819 68.9322672,28.2252998 67.5456807,27.0495653 C64.3714491,24.358848 58.9681634,22.3674478 51.7038683,22.3270319 L51.6353949,22.3270319 C43.8343171,22.3270319 36.5113305,25.7231899 31.1300542,31.0727817 C25.7487778,36.4223736 22.3153254,43.7168262 22.2945389,51.5134154 L22.2945389,51.5856741 L22.2994298,51.5856741 C22.2994298,56.6094895 23.5246147,61.2364945 25.6375085,65.2535873 C27.8934628,69.5425687 31.1618454,73.1444802 35.0330385,75.8009053 C41.765442,80.420562 49.5811926,81.8792076 56.8809471,80.5013937 C64.2039338,79.1199057 71.0121471,74.8848122 75.6964619,68.124339 Z M82.4985615,63.9149646 C82.6954226,63.3711874 83.2957876,63.0895011 83.838684,63.2866815 C84.382803,63.483862 84.6628104,64.0852012 84.4659493,64.6289784 C83.3239106,67.7899895 81.7722543,70.6460445 79.8990174,73.1799972 C75.3100762,79.3881202 68.7977659,83.6464835 61.6312899,85.6966704 C54.4745959,87.744408 46.6588453,87.5913176 39.4544644,84.9789825 C36.3548199,83.8546864 33.3676674,82.2747932 30.5944943,80.2184826 C26.165732,76.9337745 22.476727,72.6313211 19.9370972,67.6013821 C17.5344141,62.8421069 16.160055,57.4349531 16.160055,51.6285394 L16.164946,51.6285394 L16.164946,51.4668759 C16.2126328,42.1553039 20.3858426,33.3421942 26.8773663,26.8634074 C33.3725583,20.3833958 42.197069,16.2254599 51.5485804,16.2254599 L51.5485804,16.229134 L51.7160957,16.229134 C60.4403417,16.3099658 67.2008682,18.9627167 71.5538206,22.6626061 C73.9528354,24.7017706 75.6341022,27.0667115 76.526702,29.5112594 C77.4376429,32.0072457 77.5269029,34.582839 76.7223403,36.9845216 C75.8126222,39.6997334 73.77187,42.1626522 70.4998192,43.9972879 C65.7299126,46.6708591 60.1505525,47.6469636 54.5198373,47.4301876 C48.0576592,47.1827934 41.5147804,45.360405 36.0638079,42.7394969 C35.8119236,42.6182493 35.6358491,42.5337434 35.5502573,42.4908781 C35.4683338,42.4504622 35.2959275,42.3622821 35.0415977,42.2324614 C34.5280471,41.9691459 34.3238496,41.3384133 34.5867386,40.8240295 C34.8496276,40.3096457 35.4793384,40.1063416 35.992889,40.3684324 C36.0662534,40.4063988 36.2252095,40.4860058 36.4758711,40.6109276 C36.7216417,40.7321753 36.8818206,40.8105576 36.9649669,40.8509734 C42.1787279,43.3579822 48.4281493,45.1007636 54.5932016,45.3371353 C59.8644314,45.5404394 65.0647423,44.6390429 69.4763863,42.1663264 C72.2679005,40.6011298 73.9919631,38.5509429 74.7390569,36.3194968 C75.3883316,34.3795349 75.3088535,32.2791343 74.5593142,30.2252731 C73.7914338,28.1199736 72.3180328,26.0624383 70.2014708,24.2633196 C66.1823262,20.847566 59.8864407,18.3981192 51.7002001,18.3234111 L51.5485804,18.3221863 L51.5485804,18.3270852 C42.7705338,18.3270852 34.4718011,22.2437507 28.3532129,28.3489969 C22.2321791,34.4566925 18.299849,42.7419464 18.2546077,51.4742243 L18.2546077,51.6285394 L18.2582759,51.6285394 C18.2582759,57.1006036 19.5494888,62.1868799 21.8066658,66.6571203 C24.1958987,71.391901 27.6684788,75.4420613 31.8404658,78.5357127 C34.4449008,80.4671015 37.2523106,81.9514663 40.1673215,83.0084026 C46.9461891,85.4664224 54.3095261,85.6084904 61.0578251,83.6771015 C67.797565,81.7481622 73.917376,77.7531144 78.2189734,71.9320041 C79.9736045,69.5609395 81.426219,66.8824695 82.4985615,63.9149646 Z M87.7098771,60.893572 C87.837042,60.3289745 88.3958339,59.9738047 88.9595168,60.1011759 C89.5231997,60.2273225 89.8777941,60.7882458 89.7506292,61.3528433 C88.4337388,67.2131448 85.8720997,72.3288144 82.444761,76.5896272 C77.7665598,82.4058386 71.4792335,86.6299097 64.5438553,88.9875022 C57.6133681,91.3438701 50.0287152,91.8386583 42.7534155,90.1987537 C37.2205194,88.9519853 31.8685888,86.4706956 27.118246,82.6385361 C22.5072955,78.9178264 18.6764528,74.1720232 16.0402265,68.722004 C13.5433926,63.5585701 12.1189011,57.7656284 12.1189011,51.6162922 C12.1189011,51.3835947 12.1213466,51.7571354 12.1250148,51.3395047 C12.2057156,40.9967155 16.831339,31.2013777 24.0344971,23.9963299 C31.238878,16.7900574 41.0305756,12.164277 51.4397566,12.164277 L51.4434248,12.1691759 L51.7124275,12.1691759 L51.7160957,12.1691759 C61.3268278,12.2830752 68.928599,15.3093668 74.0726639,19.6240673 C77.2432273,22.2841666 79.4906224,25.4427282 80.7109164,28.7237622 C81.947106,32.050111 82.1292942,35.5013816 81.1547708,38.6966849 C80.1240015,42.0732474 77.8142467,45.1424042 74.1081234,47.4522326 C68.9102579,50.6940755 62.4321843,51.971462 55.8379504,51.8477649 C48.3009844,51.7081464 40.5916121,49.7363417 34.4779148,46.7859831 C34.2504853,46.675758 34.0181648,46.5606339 33.7809533,46.4406111 C33.5425191,46.3218129 33.3163123,46.2042394 33.1023329,46.0915649 C32.5912278,45.8221257 32.3943668,45.187719 32.6633695,44.6745599 C32.9323721,44.1626255 33.5657512,43.9666698 34.0768563,44.2361089 C34.2993948,44.3524576 34.514597,44.4639075 34.7224627,44.5692337 C34.9352194,44.6770093 35.1565352,44.7860097 35.387633,44.8974596 C41.2543369,47.7290201 48.6470196,49.619993 55.8709644,49.7547126 C62.0898172,49.8710613 68.1692778,48.6843043 73.0015441,45.6714848 C76.2540311,43.6445675 78.2691057,40.9881424 79.1543691,38.0892221 C79.9931684,35.3409428 79.8293213,32.351393 78.7520878,29.4536974 C77.6565133,26.510687 75.6182066,23.6583062 72.7288732,21.2333539 C67.919839,17.199115 60.7753723,14.3687792 51.7002001,14.263453 L51.4397566,14.2622282 L51.4397566,14.2659024 C41.6052631,14.2659024 32.3393435,18.6504122 25.5091209,25.4819194 C18.6788983,32.315876 14.2904864,41.5858075 14.2146765,51.3554261 C14.212231,51.5942472 14.217122,51.2035604 14.217122,51.6162922 C14.217122,57.4435261 15.5645809,62.9278376 17.9256908,67.8108098 C20.4237475,72.9766931 24.0565064,77.4763269 28.4290227,81.0047551 C32.9225902,84.6299364 37.9822861,86.9765064 43.2119427,88.1546903 C50.1045251,89.7076396 57.2942331,89.2373458 63.8713486,87.0010009 C70.4423505,84.7671054 76.3934234,80.7732823 80.8136265,75.2767237 C84.0489951,71.254732 86.4663511,66.4256476 87.7098771,60.893572 Z M92.5201341,57.2732896 C92.5788256,56.6976696 93.0935989,56.2788142 93.6682865,56.3376009 C94.242974,56.3963876 94.6611509,56.9107715 94.6024594,57.4863915 C93.6499454,66.5297491 90.0306366,74.2455066 84.7471794,80.3005391 C80.0909875,85.636659 74.1399146,89.679471 67.5848084,92.2011765 C61.0321476,94.7204325 53.8766763,95.7198068 46.805574,94.9727255 C38.4493726,94.0884752 30.2068859,90.7706995 23.2079252,84.644633 C18.5138285,80.535686 14.6597537,75.4432861 12.016191,69.6723894 C9.49734769,64.1721566 8.07774718,58.0632362 8.07774718,51.6101686 C8.07774718,51.4729995 8.08019266,51.5942472 8.08386088,51.196212 C8.20491209,39.7683179 13.2621625,28.9956508 21.1561684,21.0863871 C29.0562881,13.1722244 39.8053906,8.11044257 51.3040325,8.11044257 C51.3981834,8.11044257 51.3199281,8.11289202 51.7160957,8.11656619 L51.7209866,8.11656619 C62.1729635,8.2586341 70.5719608,11.6009043 76.4667878,16.4483595 C80.4529184,19.7281688 83.2994559,23.6987221 84.8682306,27.8444108 C86.4541237,32.0329649 86.7390219,36.4015533 85.5872014,40.4259944 C84.4366036,44.4443119 81.8615143,48.1050102 77.7262094,50.8875817 C72.2079862,54.6009431 64.8984498,56.2139038 57.4055024,56.2567692 C48.9808275,56.3045334 40.2957091,54.3694704 33.6782432,51.2121335 C33.4593728,51.108032 33.1879247,50.9733124 32.8687897,50.8116489 C32.6364692,50.6953002 32.3735802,50.5569064 32.0789,50.4001418 C31.5690176,50.1282532 31.3770475,49.4938465 31.6484957,48.9831368 C31.9199439,48.4736519 32.5521002,48.2813703 33.0619825,48.5520342 C33.2722937,48.6647088 33.5217326,48.7945294 33.8102991,48.9402715 C34.0096056,49.0406989 34.2651581,49.1656206 34.5794022,49.3162616 C40.9388701,52.3499015 49.2901806,54.2090316 57.3969432,54.1637169 C64.5071731,54.1220763 71.4083146,52.6156665 76.5621614,49.1472498 C80.2560573,46.6610613 82.552362,43.4094206 83.570904,39.8515991 C84.5980052,36.2643843 84.3363389,32.351393 82.909402,28.582919 C81.4665694,24.7703551 78.8352341,21.1059826 75.1388927,18.0662191 C69.5827646,13.4955514 61.6300672,10.3443381 51.6953091,10.2096185 C51.5754806,10.2083938 51.6635179,10.2120679 51.3040325,10.2120679 C40.3861919,10.2120679 30.1653127,15.033804 22.6405741,22.5719766 C15.1109445,30.1138233 10.2884601,40.3635335 10.1747454,51.2121335 C10.1735226,51.3395047 10.1759681,51.2011109 10.1759681,51.6101686 C10.1759681,57.763179 11.5246497,63.576941 13.9175508,68.801611 C16.4351714,74.296945 20.1082807,79.1505238 24.5847299,83.068414 C31.2376552,88.8919738 39.0741924,92.0468613 47.0195534,92.8870216 C53.7678525,93.6010353 60.5931841,92.6482005 66.8389373,90.2477426 C73.0785767,87.8472847 78.7435286,84.0004285 83.1735137,78.9215005 C88.1830772,73.1799972 91.6153069,65.8586007 92.5201341,57.2732896 L92.5201341,57.2732896 Z" id="Fill-3" fill="#3C8628"></path>
            </g>
        </g>
    </g>
</svg>