<?xml version="1.0" encoding="utf-8"?>
<!-- Generator: Adobe Illustrator 16.0.0, SVG Export Plug-In . SVG Version: 6.00 Build 0)  -->
<!DOCTYPE svg PUBLIC "-//W3C//DTD SVG 1.1//EN" "http://www.w3.org/Graphics/SVG/1.1/DTD/svg11.dtd">
<svg version="1.1" id="Layer_1" xmlns="http://www.w3.org/2000/svg" xmlns:xlink="http://www.w3.org/1999/xlink" x="0px" y="0px"
	 width="200px" height="100px" viewBox="0 0 200 100" enable-background="new 0 0 200 100" xml:space="preserve">
<path fill="#2FBEEF" d="M35.284,79.563l-0.489-2.441h-2.078l-0.476,2.441H31.44l1.99-8.915h0.689l1.953,8.915H35.284z
	 M33.756,71.976l-0.889,4.482h1.791L33.756,71.976z"/>
<path fill="#2FBEEF" d="M40.625,79.877l-0.702-0.576c-0.3,0.225-0.701,0.363-1.176,0.363c-0.576,0-1.027-0.201-1.327-0.526
	c-0.539-0.576-0.626-1.202-0.626-4.031c0-2.83,0.088-3.457,0.626-4.033c0.3-0.324,0.751-0.525,1.327-0.525s1.039,0.201,1.34,0.525
	c0.538,0.576,0.625,1.203,0.625,4.033c0,2.467-0.062,3.217-0.4,3.743L41,79.438L40.625,79.877z M39.548,71.525
	c-0.176-0.201-0.451-0.313-0.801-0.313c-0.351,0-0.614,0.112-0.789,0.313c-0.376,0.438-0.426,0.951-0.426,3.581
	c0,2.629,0.05,3.143,0.426,3.58C38.133,78.888,38.396,79,38.747,79c0.263,0,0.463-0.051,0.625-0.162l-0.701-0.602l0.376-0.439
	l0.676,0.564c0.225-0.438,0.25-1.114,0.25-3.255C39.973,72.477,39.923,71.963,39.548,71.525"/>
<path fill="#2FBEEF" d="M45.353,79.563l-1.29-3.994h-1.151v3.994h-0.739v-8.915h1.753c1.077,0,1.928,0.389,1.928,2.467
	c0,1.377-0.376,2.041-1.102,2.316l1.39,4.132H45.353z M43.951,71.312h-1.039v3.593h1.039c0.901,0,1.165-0.639,1.165-1.79
	C45.115,71.963,44.852,71.312,43.951,71.312"/>
<path fill="#2FBEEF" d="M50.877,79.563l-0.489-2.441H48.31l-0.476,2.441h-0.801l1.99-8.915h0.689l1.953,8.915H50.877z
	 M49.349,71.976l-0.889,4.482h1.791L49.349,71.976z"/>
<path fill="#2FBEEF" d="M55.872,79.563l-1.29-3.994h-1.152v3.994h-0.739v-8.915h1.753c1.077,0,1.928,0.389,1.928,2.467
	c0,1.377-0.376,2.041-1.102,2.316l1.389,4.132H55.872z M54.47,71.312h-1.039v3.593h1.039c0.902,0,1.165-0.639,1.165-1.79
	C55.634,71.963,55.372,71.312,54.47,71.312"/>
<polygon fill="#2FBEEF" points="63.86,79.563 62.132,75.156 61.268,76.858 61.268,79.563 60.529,79.563 60.529,70.648 
	61.268,70.648 61.268,75.493 63.635,70.648 64.423,70.648 62.595,74.329 64.661,79.563 "/>
<path fill="#2FBEEF" d="M68.896,79.563l-1.29-3.994h-1.152v3.994h-0.739v-8.915h1.753c1.077,0,1.929,0.389,1.929,2.467
	c0,1.377-0.376,2.041-1.102,2.316l1.39,4.132H68.896z M67.493,71.312h-1.039v3.593h1.039c0.902,0,1.164-0.639,1.164-1.79
	C68.657,71.963,68.395,71.312,67.493,71.312"/>
<polygon fill="#2FBEEF" points="70.941,79.563 70.941,70.648 74.046,70.648 74.046,71.312 71.679,71.312 71.679,74.768 
	73.72,74.768 73.72,75.432 71.679,75.432 71.679,78.899 74.046,78.899 74.046,79.563 "/>
<path fill="#2FBEEF" d="M78.464,79.05c-0.301,0.313-0.739,0.514-1.328,0.514h-1.828v-8.915h1.828c0.589,0,1.027,0.2,1.328,0.514
	c0.539,0.562,0.626,1.164,0.626,3.944C79.09,77.886,79.003,78.486,78.464,79.05 M77.914,71.625c-0.175-0.2-0.451-0.312-0.814-0.312
	h-1.052v7.587H77.1c0.363,0,0.639-0.112,0.814-0.313c0.388-0.412,0.438-0.938,0.438-3.479
	C78.352,72.552,78.302,72.038,77.914,71.625"/>
<path fill="#2FBEEF" d="M80.266,68.959h0.789v0.788h-0.789V68.959z M80.291,70.648h0.738v8.915h-0.738V70.648z"/>
<polygon fill="#2FBEEF" points="84.241,71.312 84.241,79.563 83.502,79.563 83.502,71.312 82.012,71.312 82.012,70.648 
	85.73,70.648 85.73,71.312 "/>
<polygon fill="#2FBEEF" points="91.114,79.563 90.388,79.563 88.485,70.648 89.299,70.648 90.75,78.236 92.204,70.648 
	93.018,70.648 "/>
<path fill="#2FBEEF" d="M93.788,74.844h3.068c-0.013-2.38-0.075-2.881-0.426-3.306c-0.175-0.201-0.426-0.326-0.789-0.326
	c-0.901,0-1.114,0.764-1.114,1.478h-0.739c0-0.676,0.188-1.265,0.563-1.653c0.3-0.3,0.714-0.488,1.29-0.488
	c0.576,0,1.027,0.201,1.327,0.525c0.564,0.602,0.626,1.304,0.626,4.033s-0.062,3.43-0.626,4.031c-0.3,0.325-0.751,0.526-1.327,0.526
	c-0.989,0-1.853-0.677-1.853-2.004V74.844z M94.527,77.66c0,0.839,0.476,1.34,1.114,1.34c0.363,0,0.614-0.125,0.789-0.325
	c0.338-0.413,0.413-0.915,0.426-3.205h-2.329V77.66z"/>
<path fill="#2FBEEF" d="M101.538,68.959h0.788v0.788h-0.788V68.959z M101.562,70.648h0.739v8.915h-0.739V70.648z"/>
<polygon fill="#2FBEEF" points="106.992,79.563 104.5,72.614 104.5,79.563 103.761,79.563 103.761,70.648 104.5,70.648 
	106.979,77.598 106.979,70.648 107.718,70.648 107.718,79.563 "/>
<polygon fill="#2FBEEF" points="112.52,79.563 110.792,75.156 109.928,76.858 109.928,79.563 109.188,79.563 109.188,70.648 
	109.928,70.648 109.928,75.493 112.294,70.648 113.082,70.648 111.255,74.329 113.32,79.563 "/>
<path fill="#2FBEEF" d="M114.225,68.959h0.788v0.788h-0.788V68.959z M114.249,70.648h0.739v8.915h-0.739V70.648z"/>
<path fill="#2FBEEF" d="M119.396,79.162c-0.301,0.301-0.751,0.476-1.39,0.476c-0.602,0-1.077-0.149-1.403-0.476
	c-0.4-0.413-0.525-0.851-0.525-1.828h0.738c0,0.689,0.075,1.064,0.352,1.341c0.188,0.188,0.463,0.3,0.839,0.3
	c0.412,0,0.676-0.112,0.851-0.3c0.288-0.313,0.351-0.714,0.351-1.415c0-1.115-0.175-1.516-0.938-1.828l-0.952-0.388
	c-0.913-0.376-1.177-0.89-1.177-2.229c0-0.764,0.2-1.377,0.614-1.765c0.325-0.313,0.751-0.477,1.302-0.477
	c0.575,0,1.026,0.176,1.34,0.489c0.438,0.437,0.538,0.951,0.538,1.728h-0.738c0-0.564-0.075-0.928-0.339-1.228
	c-0.175-0.2-0.438-0.325-0.813-0.325c-0.351,0-0.602,0.112-0.776,0.288c-0.275,0.275-0.388,0.726-0.388,1.276
	c0,1.027,0.149,1.327,0.964,1.666l0.952,0.388c0.963,0.389,1.151,1.09,1.151,2.379C119.947,78.174,119.797,78.762,119.396,79.162
	 M117.719,81.704h-0.664l0.664-1.678h0.575L117.719,81.704z"/>
<path fill="#2FBEEF" d="M124.511,79.563l-0.488-2.441h-2.079l-0.476,2.441h-0.801l1.99-8.915h0.688l1.954,8.915H124.511z
	 M122.983,71.976l-0.89,4.482h1.791L122.983,71.976z"/>
<polygon fill="#2FBEEF" points="127.064,71.312 127.064,74.768 129.105,74.768 129.105,75.432 127.064,75.432 127.064,79.563 
	126.325,79.563 126.325,70.648 129.431,70.648 129.431,71.312 "/>
<path fill="#2FBEEF" d="M136.279,79.563l-0.488-2.441h-2.079l-0.476,2.441h-0.801l1.99-8.915h0.688l1.954,8.915H136.279z
	 M134.752,71.976l-0.889,4.482h1.79L134.752,71.976z"/>
<path fill="#2FBEEF" d="M139.742,79.664c-0.576,0-1.026-0.2-1.327-0.526c-0.538-0.576-0.626-1.202-0.626-4.031
	c0-2.83,0.088-3.457,0.626-4.032c0.301-0.325,0.751-0.526,1.327-0.526s1.001,0.188,1.302,0.488c0.376,0.401,0.539,0.978,0.551,1.653
	h-0.738c0-0.715-0.213-1.478-1.114-1.478c-0.351,0-0.613,0.125-0.789,0.326c-0.363,0.425-0.426,0.951-0.426,3.568
	c0,2.616,0.062,3.143,0.426,3.568c0.176,0.199,0.438,0.325,0.789,0.325c0.651,0,1.114-0.488,1.114-1.34v-2.191h-1.114v-0.625h1.853
	v2.816C141.595,79,140.731,79.664,139.742,79.664"/>
<polygon fill="#2FBEEF" points="142.925,79.563 142.925,70.648 146.029,70.648 146.029,71.312 143.663,71.312 143.663,74.768 
	145.704,74.768 145.704,75.432 143.663,75.432 143.663,78.899 146.029,78.899 146.029,79.563 "/>
<polygon fill="#2FBEEF" points="150.523,79.563 148.031,72.614 148.031,79.563 147.293,79.563 147.293,70.648 148.031,70.648 
	150.51,77.598 150.51,70.648 151.249,70.648 151.249,79.563 "/>
<polygon fill="#2FBEEF" points="154.6,71.312 154.6,79.563 153.86,79.563 153.86,71.312 152.37,71.312 152.37,70.648 156.09,70.648 
	156.09,71.312 "/>
<polygon fill="#2FBEEF" points="157.211,79.563 157.211,70.648 157.949,70.648 157.949,78.899 160.316,78.899 160.316,79.563 "/>
<path fill="#2FBEEF" d="M161.287,68.959h0.789v0.788h-0.789V68.959z M161.312,70.648h0.738v8.915h-0.738V70.648z"/>
<polygon fill="#2FBEEF" points="165.23,75.832 165.23,79.563 164.492,79.563 164.492,75.832 162.928,70.648 163.741,70.648 
	164.855,74.73 165.982,70.648 166.797,70.648 "/>
<path fill="#2FBEEF" d="M167.661,68.959h0.788v0.788h-0.788V68.959z M167.687,70.648h0.738v8.915h-0.738V70.648z"/>
<path fill="#2FBEEF" d="M102.692,53.78H90.398l-2.696,6.399h-6.444l13.117-30.484h4.662l12.751,30.484h-6.398L102.692,53.78z
	 M100.956,48.937l-4.342-10.969l-4.342,10.969H100.956z"/>
<polygon fill="#2FBEEF" points="122.063,42.583 133.261,29.695 140.756,29.695 127.868,43.772 141.441,60.179 133.581,60.179 
	122.749,46.514 122.063,47.2 122.063,60.179 116.122,60.179 116.122,29.695 122.063,29.695 "/>
<path fill="#2FBEEF" d="M148.709,19.572c1.889,0,3.348,1.459,3.348,3.348c0,1.888-1.46,3.347-3.348,3.347s-3.348-1.459-3.348-3.347
	C145.361,21.031,146.821,19.572,148.709,19.572 M151.68,60.18h-5.941V29.695h5.941V60.18z"/>
<path fill="#2FBEEF" d="M177.456,53.78h-12.294l-2.697,6.399h-6.443l13.116-30.484h4.662l12.751,30.484h-6.398L177.456,53.78z
	 M175.72,48.937l-4.342-10.969l-4.343,10.969H175.72z"/>
<path fill="#2FBEEF" d="M56.155,26.769c-2.272-4.272-6.769-7.182-11.946-7.182H33.123l16.05,32.907l0.003-0.002
	c2.184,4.532,6.82,7.66,12.188,7.66h11.073L56.155,26.769z"/>
<path fill="#9FC73B" d="M34.983,33.108c-5.368,0-10.004,3.127-12.188,7.659l-0.002,0l-9.455,19.385h24.261
	c5.309,0,9.903-3.061,12.116-7.513h0.001l9.526-19.531H34.983z"/>
<path fill="#7D9C3D" d="M59.242,33.108l-9.526,19.531h-0.001c-2.213,4.452-6.807,7.513-12.116,7.513h-24.26L59.242,33.108z"/>
</svg>
