<?xml version="1.0" encoding="UTF-8"?>
<svg width="206px" height="86px" viewBox="0 0 206 86" version="1.1" xmlns="http://www.w3.org/2000/svg" xmlns:xlink="http://www.w3.org/1999/xlink">
    <!-- Generator: sketchtool 53.1 (72631) - https://sketchapp.com -->
    <title>3A3B5213-89B8-422C-B848-FEB2D4A0E3E4</title>
    <desc>Created with sketchtool.</desc>
    <defs>
        <polygon id="path-1" points="0.162217493 0.380865734 24.1284257 0.380865734 24.1284257 25.7562783 0.162217493 25.7562783"></polygon>
    </defs>
    <g id="Page-2" stroke="none" stroke-width="1" fill="none" fill-rule="evenodd">
        <g id="sso" transform="translate(-653.000000, -254.000000)">
            <g id="Group-5" transform="translate(340.000000, 137.000000)">
                <g id="Group-26" transform="translate(313.000000, 117.000000)">
                    <path d="M64.3260525,8.78835804 C64.1062391,8.78835804 63.8834227,8.72761678 63.6840292,8.60072168 C57.3052362,4.5478965 49.9192653,2.40571469 42.3254927,2.40571469 C41.4582507,2.40571469 40.5777959,2.43398042 39.7105539,2.48870769 C38.7406122,2.55125315 37.7640641,2.64988252 36.8097376,2.78279161 C36.1563032,2.86939301 35.5455102,2.41413427 35.4548222,1.7562042 C35.3635335,1.09827413 35.8229796,0.490861538 36.4800175,0.399448951 C37.4926006,0.258721678 38.5286064,0.15467972 39.5574052,0.0879244755 C40.4756968,0.0301902098 41.4072012,0.00012027972 42.3254927,0.00012027972 C50.3757085,0.00012027972 58.2067114,2.2716028 64.9704781,6.5704 C65.5308222,6.92582657 65.6965831,7.66915524 65.3410379,8.22965874 C65.1128163,8.5910993 64.7236385,8.78835804 64.3260525,8.78835804 M53.3948397,10.0537007 C53.2699184,10.0537007 53.1425948,10.0338545 53.0176735,9.99235804 C50.8129329,9.26226014 48.5289155,8.7618965 46.2286822,8.5057007 C41.5225131,7.98308531 36.8241516,8.41067972 32.3978542,9.76081958 C31.7630379,9.95446993 31.091586,9.59663776 30.8987988,8.96095944 C30.7054111,8.32528112 31.062758,7.65351888 31.6975743,7.45986853 C36.4355743,6.01470769 41.4654577,5.55223217 46.4941399,6.11574266 C48.9601341,6.38998042 51.409312,6.92582657 53.7720058,7.70884755 C54.4020175,7.91753287 54.7437493,8.59831608 54.5347464,9.22798042 C54.3683848,9.73375664 53.8987289,10.0537007 53.3948397,10.0537007 M71.1126414,14.1768895 C70.8087464,14.1768895 70.5048513,14.0626238 70.2712245,13.8328895 C69.9373003,13.5045259 69.5973703,13.1827776 69.252035,12.8670434 C68.7625598,12.4190014 68.7277259,11.6582322 69.1745598,11.1674909 C69.6219942,10.6779524 70.3817318,10.6424699 70.8718076,11.0899105 C71.2387638,11.4254909 71.5991137,11.7670853 71.9534577,12.1152951 C72.4273178,12.5807776 72.4345248,13.3421483 71.9702741,13.8160503 C71.7348455,14.0566098 71.4231429,14.1768895 71.1126414,14.1768895 M66.8701224,18.2555748 C66.5686297,18.2555748 66.267137,18.1431133 66.0341108,17.916386 C65.699586,17.5922322 65.3590554,17.2734909 65.0119184,16.9631692 C64.5170379,16.5199385 64.4743965,15.7597706 64.9164257,15.2648196 C65.359656,14.7698685 66.1175918,14.7265678 66.6130729,15.1691972 C66.9848338,15.502372 67.3487872,15.8421622 67.7067347,16.1897706 C68.1829971,16.6516448 68.1944082,17.4130154 67.7325598,17.8905259 C67.4971312,18.1334909 67.1842274,18.2555748 66.8701224,18.2555748 M8.95829738,19.5720364 C8.71386006,19.5720364 8.46822157,19.4980643 8.25561516,19.3441063 C7.71749271,18.9544 7.59737609,18.2020503 7.98535277,17.6644 C12.3738134,11.5878685 18.2841516,6.75683357 25.0773469,3.69330909 C25.6833353,3.41967273 26.3944257,3.6903021 26.6658892,4.29591049 C26.9385539,4.90151888 26.6688921,5.61417622 26.064105,5.88660979 C19.6528805,8.77753287 14.0746647,13.3379385 9.93304373,19.0740783 C9.69761516,19.399435 9.33065889,19.5720364 8.95829738,19.5720364 M37.5718776,20.5402881 C37.0145364,20.5402881 36.5154519,20.1505818 36.397137,19.5828615 C36.2614052,18.9327497 36.6788105,18.2958685 37.3280408,18.1599524 C37.8265248,18.0559105 38.330414,17.9675049 38.8264956,17.8965399 C39.4817318,17.8033231 40.0913236,18.2579804 40.1856152,18.9165119 C40.2799067,19.5738406 39.8234636,20.1830573 39.1664257,20.2774769 C38.720793,20.3412252 38.2667522,20.4212112 37.8181166,20.5150294 C37.7358367,20.5318685 37.6529563,20.5402881 37.5718776,20.5402881 M2.33386589,33.9430573 C2.24017493,33.9430573 2.14588338,33.9328336 2.05099125,33.909379 C1.40596501,33.7536168 1.00958017,33.1041063 1.1651312,32.4576028 C1.2822449,31.9728755 1.40776676,31.4911552 1.54109621,31.012442 C1.72006997,30.3725538 2.38071137,29.9990853 3.02093294,30.1764979 C3.65995335,30.3551133 4.03351603,31.0190573 3.85514286,31.6583441 C3.72962099,32.1099944 3.61070554,32.5646517 3.50079883,33.0229175 C3.36746939,33.5737986 2.87619242,33.9430573 2.33386589,33.9430573 M27.0574694,34.769379 C26.8532711,34.769379 26.6466706,34.7176587 26.4568863,34.6082042 C25.8827289,34.2750294 25.6869388,33.5389175 26.0190612,32.9639804 C26.2767114,32.5195469 26.5541808,32.0799245 26.8454636,31.6601483 C27.2226297,31.1146797 27.972758,30.9775608 28.5162857,31.356442 C29.0616152,31.7347217 29.1979475,32.4840643 28.8195802,33.0301343 C28.5655335,33.3969874 28.3234985,33.7806797 28.0988805,34.1691832 C27.8760641,34.5546797 27.4724723,34.769379 27.0574694,34.769379 M57.9094227,35.365365 C57.4794052,35.365365 57.0626006,35.1338266 56.8469913,34.7260783 C56.7557026,34.5534769 56.6614111,34.3820783 56.5629155,34.2118825 C56.4500058,34.0140224 56.331691,33.8245818 56.2127755,33.6351413 C56.060828,33.3945818 55.9058776,33.1522182 55.7401166,32.9182741 C55.6806589,32.8334769 55.6224023,32.7564979 55.5629446,32.6801203 L55.4596443,32.5430014 C54.4812945,31.2349594 53.361207,30.1151552 52.1300117,29.2136587 L51.9414286,29.0717287 C51.8801691,29.0248196 51.8195102,28.9785119 51.756449,28.9340084 C51.5168163,28.764414 51.2681749,28.607449 51.0195335,28.4504839 C50.8399592,28.3380224 50.6579825,28.2237566 50.4712012,28.1167077 C50.2543907,27.9922182 50.0369796,27.8749455 49.8171662,27.7612811 C49.5697259,27.6337846 49.3150787,27.5110993 49.056828,27.394428 C48.8544315,27.302414 48.6892711,27.2272392 48.522309,27.1586797 C48.1883848,27.0221622 47.8274344,26.8898545 47.4508688,26.7665678 L47.2941166,26.7118406 C47.2448688,26.6937986 47.195621,26.676358 47.145172,26.6613231 C46.1548105,26.3576168 45.1308163,26.1477287 44.0972128,26.0370713 C43.7308571,25.9985818 43.3572945,25.985351 42.9627114,25.9709175 C42.8389913,25.9661063 42.742898,25.9600923 42.6474052,25.9534769 C42.548309,25.9468615 42.4486122,25.9390434 42.3471137,25.9390434 C39.2565131,25.9390434 36.2614052,26.7930294 33.6662857,28.4101902 C33.1023382,28.7602042 32.3618192,28.5882042 32.0116793,28.0240923 C31.6615394,27.4599804 31.8339067,26.7184559 32.3972536,26.3672392 C35.3737434,24.5131273 38.807277,23.533449 42.3260933,23.533449 C42.50807,23.5340503 42.6600175,23.5430713 42.811965,23.5538965 C42.884035,23.5587077 42.956105,23.5635189 43.0287755,23.5665259 C43.4666006,23.5821622 43.8990204,23.5971972 44.3506589,23.6447077 C45.5380117,23.7716028 46.7127522,24.0121622 47.8460525,24.360372 C47.9283324,24.3856308 48.0130146,24.4144979 48.0976968,24.4445678 L48.2052012,24.4824559 C48.6292128,24.621379 49.0442157,24.7735329 49.4315918,24.9323021 C49.6279825,25.0134909 49.8207697,25.1000923 50.0123557,25.1872951 C50.3402741,25.3358406 50.6321574,25.4759664 50.9192362,25.6239105 C51.1738834,25.7562182 51.4231254,25.8897287 51.6669621,26.0304559 C51.8789679,26.1519385 52.0879708,26.282442 52.2969738,26.4135469 C52.5840525,26.5939664 52.8669271,26.774386 53.1413936,26.9680364 C53.2278776,27.029379 53.3131603,27.0937287 53.3978426,27.1586797 L53.5461866,27.2699385 C54.9713703,28.3139664 56.2608222,29.6021622 57.3821108,31.1008476 L57.4733994,31.2205259 C57.5514752,31.3227636 57.6289504,31.4256028 57.7028222,31.5302462 C57.8896035,31.7942601 58.0679767,32.0721063 58.2445481,32.3511552 C58.3826822,32.5700643 58.5166122,32.7877706 58.6445364,33.0102881 C58.7556443,33.2027357 58.8643499,33.3999944 58.9700525,33.5996587 C59.2805539,34.1860224 59.057137,34.9143161 58.4709679,35.2258406 C58.2913936,35.3208615 58.099207,35.365365 57.9094227,35.365365 M7.35654227,39.1247077 C7.30609329,39.1247077 7.25564431,39.1217007 7.20459475,39.1156867 C6.5457551,39.0320923 6.08030321,38.4306937 6.16258309,37.7715608 C7.42020408,27.791351 12.8392653,18.6747497 21.0300175,12.7599944 C21.5687405,12.3720923 22.32007,12.4929734 22.7068455,13.0318266 C23.0954227,13.5700783 22.9735044,14.3218266 22.4353819,14.7109315 C14.7833528,20.2371832 9.72043732,28.7517846 8.54629738,38.0722601 C8.46942274,38.6808755 7.9523207,39.1247077 7.35654227,39.1247077 M65.4533469,39.4891552 C64.8701808,39.4891552 64.358484,39.063365 64.2671953,38.4679804 C64.2335627,38.2442601 64.1957259,38.0217427 64.1500816,37.8022322 C64.1182507,37.6524839 64.0780117,37.5063441 64.0377726,37.3596028 C64.0065423,37.2435329 63.9747114,37.1274629 63.9452828,37.0107916 L63.903242,36.8381902 C63.7981399,36.4105958 63.6984431,36.0070573 63.5771254,35.6209594 C63.5302799,35.4748196 63.4744257,35.3310853 63.419172,35.1867497 C63.3777318,35.0784979 63.3368921,34.9702462 63.2972536,34.861393 L63.2576152,34.7489315 C63.1050671,34.3219385 62.9615277,33.9177986 62.7945656,33.5335049 C62.7345073,33.3927776 62.6654402,33.2568615 62.5981749,33.1203441 C62.5483265,33.0205119 62.4984781,32.9206797 62.4510321,32.8196448 L62.4095918,32.7318406 C62.2113994,32.3156727 62.0240175,31.922358 61.8162157,31.5482881 C61.7411429,31.4135748 61.658863,31.2824699 61.5765831,31.151365 L61.4120233,30.8849455 C61.1826006,30.5024559 60.9219475,30.0706517 60.6522857,29.6797427 C60.5633994,29.553449 60.4685073,29.4289594 60.3730146,29.3050713 L60.1910379,29.0651133 C59.9021574,28.6760084 59.6168805,28.2977287 59.3159883,27.9429035 C59.2072828,27.8142042 59.0913703,27.6909175 58.9766589,27.5670294 L58.7976851,27.3721762 C58.4901866,27.0347916 58.1616676,26.6781622 57.8229388,26.3497986 C57.6938134,26.2247077 57.5598834,26.1062322 57.4259534,25.9865538 L57.2397726,25.819365 C56.9076501,25.5192671 56.5503032,25.2017287 56.1851487,24.9118545 C56.0271953,24.7855608 55.8668397,24.6682881 55.706484,24.5510154 L55.5299125,24.4211133 C55.2019942,24.179351 54.8110146,23.8954909 54.4140292,23.6374909 C54.2092303,23.5051832 53.9978251,23.3806937 53.7858192,23.2556028 L53.686723,23.1960643 C53.3696152,23.0078266 52.9534111,22.7642601 52.5287988,22.5447497 L52.4597318,22.5092671 C51.8699592,22.2067636 51.6363324,21.4814769 51.9384257,20.8903021 C52.240519,20.3003301 52.9630204,20.0639804 53.5551953,20.3682881 L53.6374752,20.4109874 C54.1113353,20.6551552 54.568379,20.9227776 54.9119125,21.1278545 L55.0080058,21.1837846 C55.2476385,21.3257147 55.48607,21.4670434 55.7202974,21.6185958 C56.1713353,21.9114769 56.5983499,22.2211972 56.9562974,22.4852112 L57.1250612,22.6090993 C57.3124431,22.7468196 57.4998251,22.8839385 57.6818017,23.0300783 C58.0962041,23.3596448 58.4883848,23.7078545 58.8499359,24.034414 L59.0235044,24.1895748 C59.1820583,24.3315049 59.3400117,24.4728336 59.4931603,24.6207776 C59.8823382,24.9972531 60.2390845,25.3857566 60.5724082,25.751407 L60.7363673,25.929421 C60.8757026,26.0797706 61.0144373,26.2295189 61.1471662,26.3858825 C61.4937026,26.7948336 61.8042041,27.2061902 62.1171079,27.6271692 L62.2798659,27.8418685 C62.3975802,27.9952252 62.5146939,28.1485818 62.6252012,28.3079524 C62.9399067,28.7632112 63.2209796,29.2298965 63.4690204,29.6424559 L63.6131603,29.8751972 C63.7164606,30.0405818 63.8191603,30.2059664 63.9146531,30.3767636 C64.1602915,30.8187916 64.3722974,31.2656308 64.5782974,31.6980364 L64.7482624,32.047449 C64.8353469,32.2224559 64.9218309,32.3974629 64.9999067,32.5784839 C65.196898,33.0349455 65.3614577,33.4950154 65.5194111,33.939449 L65.5590496,34.0495049 C65.5920816,34.1415189 65.627516,34.2341343 65.6629504,34.3261483 C65.7344198,34.5131832 65.8052886,34.701421 65.8665481,34.8932671 C66.0130904,35.3557427 66.126,35.8170154 66.2359067,36.2632531 L66.2773469,36.4322462 C66.3013703,36.5302741 66.3283965,36.6277007 66.3548222,36.7251273 C66.4076735,36.9181762 66.4599242,37.1112252 66.5007638,37.3090853 C66.5560175,37.5706937 66.6016618,37.8365119 66.6425015,38.1047357 C66.7421983,38.7614629 66.2917609,39.3748895 65.6365248,39.4753231 C65.5746647,39.4849455 65.5140058,39.4891552 65.4533469,39.4891552 M83.3098834,47.0090434 C83.2774519,47.0090434 83.2438192,47.0078406 83.2101866,47.0048336 C82.5495452,46.9501063 82.0570671,46.3691552 82.1117201,45.7076168 C82.2024082,44.6076587 82.2480525,43.4884559 82.2480525,42.3818825 C82.2486531,36.3703021 80.9495918,30.5926657 78.3875044,25.2077427 C78.1022274,24.6081483 78.3562741,23.8900783 78.9550554,23.604414 C79.5526356,23.3199524 80.2709329,23.5725399 80.5562099,24.1727357 C83.2738484,29.8836168 84.6509854,36.0100643 84.6503848,42.3818825 C84.6503848,43.5540084 84.6017376,44.7381622 84.5062449,45.9048755 C84.4545948,46.5333371 83.9290845,47.0090434 83.3098834,47.0090434 M19.1706122,47.613449 C18.5970554,47.613449 18.0901633,47.2008895 17.9886647,46.6145259 C17.7484315,45.2270993 17.6265131,43.8017846 17.6265131,42.3788755 C17.6265131,41.6626098 17.6577434,40.9331133 17.7190029,40.2108336 C18.4084723,32.1424699 23.0918192,24.9010294 30.2465656,20.8397846 C30.8243265,20.5132252 31.5564373,20.7158965 31.8837551,21.2932392 C32.2104723,21.8711832 32.0080758,22.6054909 31.431516,22.9332531 C24.9656385,26.602386 20.7345306,33.1377846 20.1135277,40.4159105 C20.0570729,41.0702322 20.0288455,41.7305678 20.0288455,42.3788755 C20.0288455,43.6646657 20.1387522,44.9516587 20.3555627,46.2055748 C20.4690729,46.8598965 20.0306472,47.4823441 19.3766122,47.5948056 C19.3075452,47.607435 19.2390787,47.613449 19.1706122,47.613449 M7.32230904,47.7890573 C6.72292711,47.7890573 6.20462391,47.3398126 6.13135277,46.7287916 C6.07249563,46.2350434 6.0238484,45.7370853 5.9848105,45.2379245 C5.93316035,44.576386 6.42804082,43.9978406 7.0892828,43.9461203 C7.74451895,43.8931972 8.32828571,44.389351 8.38053644,45.0520923 C8.41657143,45.5181762 8.46161516,45.9824559 8.5168688,46.4425259 C8.59554519,47.1028615 8.12528863,47.7018545 7.46644898,47.7806378 C7.41780175,47.7860503 7.3697551,47.7890573 7.32230904,47.7890573 M76.6950612,51.4509734 C76.6061749,51.4509734 76.516688,51.4425538 76.4266006,51.4221063 C75.7797726,51.2741622 75.3749796,50.6294629 75.522723,49.9817566 C76.0866706,47.5039944 76.3731487,44.9468476 76.3731487,42.3818825 C76.3731487,40.9505538 76.2830612,39.4951692 76.1058892,38.0548196 C75.4602624,32.8010014 73.5293878,27.6849035 70.5222682,23.2598126 C70.1493061,22.7107357 70.2916443,21.9625958 70.8399767,21.5891273 C71.3871079,21.2162601 72.1354344,21.3569874 72.5083965,21.9066657 C75.7293236,26.6462881 77.7983324,32.1286378 78.4908047,37.7613371 C78.6793878,39.2979105 78.775481,40.8525259 78.775481,42.3818825 C78.775481,45.1266657 78.4691837,47.8636308 77.8649971,50.5164 C77.7376735,51.0738965 77.242793,51.4509734 76.6950612,51.4509734 M45.2617434,60.9687077 C44.6857843,60.9687077 44.1770904,60.5525399 44.0779942,59.9649734 C43.968688,59.3100503 44.409516,58.6900084 45.0641516,58.579351 C48.460449,58.0080224 51.5342332,56.4227357 53.9521808,53.9954909 L53.986414,53.9527916 C54.0386647,53.8920503 54.0909155,53.8307077 54.1467697,53.7741762 C54.5293411,53.3772531 54.9059067,52.942442 55.2680583,52.4787636 L55.3695569,52.343449 C55.6626414,51.9597566 55.9503207,51.5465958 56.2229854,51.1147916 C56.2848455,51.0149594 56.3473061,50.9103161 56.4091662,50.8056727 C56.6247755,50.4478406 56.8349796,50.0617427 57.0373761,49.653393 C57.1070437,49.5120643 57.1791137,49.3683301 57.246379,49.220386 C57.3971254,48.8938266 57.5466706,48.5281762 57.7052245,48.1029874 L57.7598776,47.9550434 C57.8073236,47.8317566 57.8541691,47.7090713 57.8950087,47.583379 C58.0229329,47.2026937 58.1304373,46.7991552 58.2181224,46.4545538 L58.276379,46.2368476 C58.3076093,46.1201762 58.3394402,46.0047077 58.3652653,45.8868336 C58.4127114,45.6643161 58.453551,45.436386 58.489586,45.2072531 C58.5934869,44.5517287 59.2072828,44.1060923 59.8643207,44.2077287 C60.5195569,44.3105678 60.9663907,44.9276028 60.8624898,45.5843301 C60.8192478,45.8579664 60.7706006,46.1304 60.712344,46.3992252 C60.6775102,46.5597986 60.63607,46.7125538 60.5946297,46.8647077 L60.5447813,47.0535469 C60.4462857,47.438442 60.3249679,47.8930993 60.1742216,48.3441483 C60.123172,48.4975049 60.065516,48.6514629 60.0078601,48.805421 L59.9562099,48.9425399 C59.7766356,49.4242601 59.6042682,49.8446378 59.428898,50.2247217 C59.3526239,50.3925119 59.2715452,50.5572951 59.1898659,50.7226797 C58.9580408,51.1899664 58.7160058,51.6331972 58.4703673,52.0421483 C58.4013003,52.1588196 58.3298309,52.2778965 58.2559592,52.3969734 C57.9424548,52.8925259 57.6133353,53.3658266 57.2758076,53.8072531 L57.1616968,53.9588056 C56.7460933,54.4910434 56.3142741,54.9890014 55.876449,55.4430573 L55.8109854,55.5176308 C55.768344,55.5669455 55.7257026,55.6162601 55.6806589,55.6637706 C52.8789388,58.4783161 49.3553178,60.2957427 45.4623382,60.9512671 C45.3950729,60.9632951 45.327207,60.9687077 45.2617434,60.9687077 M28.0946764,61.4540364 C27.0899009,61.4540364 26.147586,61.0661343 25.3686297,60.3306238 C24.4809679,59.4928755 23.6491603,58.5811552 22.8954286,57.6225259 C22.4846297,57.1005119 22.5741166,56.3439524 23.0960233,55.9337986 C23.61793,55.5230434 24.3722624,55.611449 24.7824606,56.1346657 C25.4635219,57.0006797 26.2154519,57.823393 27.0166297,58.5805538 C27.3457493,58.8914769 27.7085015,59.048442 28.0946764,59.048442 C29.0195743,59.048442 29.9270554,58.1649874 29.9270554,57.2634909 C29.9270554,56.9212951 29.7931254,56.5869175 29.5294694,56.2699804 C29.32407,56.0222042 29.1096618,55.7852531 28.8952536,55.5669455 C26.7824023,53.4157427 25.2028688,50.7665818 24.3248163,47.9033231 C24.1302274,47.2676448 24.4869738,46.5952811 25.1211895,46.400428 C25.7554052,46.2067776 26.4268571,46.5628056 26.6220466,47.1972811 C27.3865889,49.6930853 28.7649271,52.0024559 30.6063149,53.879421 C30.8675685,54.1440364 31.1270204,54.4309035 31.3762624,54.7310014 C32.0002682,55.4821483 32.3293878,56.3577846 32.3293878,57.2634909 C32.3293878,59.4952811 30.3504665,61.4540364 28.0946764,61.4540364 M9.40332945,68.2570573 C9.03757434,68.2570573 8.67722449,68.0898685 8.44119534,67.7759385 C2.91883382,60.4045958 0,51.6241762 0,42.3824839 C0,41.5272951 0.0258250729,40.6648895 0.0762740525,39.8193231 C0.115912536,39.155379 0.677457726,38.6429874 1.34650729,38.6904979 C2.00834985,38.7295888 2.51344023,39.2991133 2.47380175,39.9624559 C2.42635569,40.7605119 2.40233236,41.575407 2.40233236,42.3824839 C2.40233236,51.0991552 5.15540525,59.380414 10.3624606,66.3325818 C10.7612478,66.8630154 10.6537434,67.6165678 10.122828,68.0152951 C9.90721866,68.1788755 9.65377259,68.2570573 9.40332945,68.2570573 M45.2629446,69.3504 C44.5993003,69.3504 44.0617784,68.8121483 44.0617784,68.1476028 L44.0617784,65.7083301 C44.0617784,65.1027217 44.5128163,64.5909315 45.114,64.5157566 C50.2724082,63.8704559 55.0752711,61.4017147 58.63793,57.5665958 L58.7592478,57.4330853 C59.7003615,56.4095049 60.5609971,55.258428 61.3940058,53.9100923 C61.4925015,53.7525259 61.5897959,53.5961622 61.6816851,53.4367916 C61.8564548,53.1288755 62.0240175,52.8131413 62.1861749,52.4937986 C62.3285131,52.2165538 62.461242,51.9363021 62.5903673,51.6536448 L62.6660408,51.4888615 C62.7705423,51.2603301 62.8756443,51.0324 62.9705364,50.7984559 C63.1687289,50.3149315 63.350105,49.8265958 63.5086589,49.3460783 C63.7170612,48.716414 64.3927172,48.3712112 65.0263324,48.5835049 C65.6557434,48.7921902 65.9974752,49.4717706 65.7890729,50.1032392 C65.613102,50.6348755 65.4131079,51.1749315 65.193895,51.7107776 C65.0863907,51.9747916 64.9680758,52.2327916 64.8497609,52.4919944 L64.7740875,52.6561762 C64.6287464,52.9737147 64.4822041,53.2822322 64.3260525,53.5883441 C64.1470787,53.9395608 63.9620991,54.2889734 63.7657085,54.632372 C63.6582041,54.8200084 63.5464956,54.9998266 63.4353878,55.1796448 C62.523102,56.6554769 61.572379,57.9250294 60.5303673,59.0586657 L60.3988397,59.2036028 C56.6938426,63.1920783 51.7786706,65.8448476 46.4641108,66.7475469 L46.4641108,68.1476028 C46.4641108,68.8121483 45.9259883,69.3504 45.2629446,69.3504 M27.7583499,75.7240224 C27.5919883,75.7240224 27.4238251,75.6885399 27.2622682,75.6157706 C20.372379,72.4806797 14.7028746,67.3627776 10.8657493,60.8189594 C10.5300233,60.2452252 10.7216093,59.5085119 11.2933644,59.1717287 C11.8663207,58.8361483 12.602035,59.0285958 12.9377609,59.6005259 C16.5226414,65.7161483 21.8197843,70.4960643 28.2556327,73.4254769 C28.8598192,73.7003161 29.1270787,74.4135748 28.8532128,75.0179804 C28.6514169,75.4612112 28.214793,75.7240224 27.7583499,75.7240224 M56.1286939,76.049379 C55.6614402,76.049379 55.2176093,75.7745399 55.0230204,75.3174769 C54.7629679,74.7052531 55.0470437,73.9998126 55.6566356,73.739407 C62.1609504,70.9651552 67.5692012,66.3103301 71.2988222,60.2813091 C71.6477609,59.7165958 72.3876793,59.5421902 72.9522274,59.8922042 C73.5167755,60.2416168 73.6909446,60.9831413 73.3414052,61.5478545 C69.34993,68.0020643 63.560309,72.9828476 56.5989504,75.9525538 C56.4452012,76.0181063 56.2854461,76.049379 56.1286939,76.049379 M45.2629446,78.0376028 C44.5993003,78.0376028 44.0617784,77.4999524 44.0617784,76.8348056 L44.0617784,75.3872392 C44.0617784,74.7232951 44.5993003,74.184442 45.2629446,74.184442 C45.9259883,74.184442 46.4641108,74.7232951 46.4641108,75.3872392 L46.4641108,76.8348056 C46.4641108,77.4999524 45.9259883,78.0376028 45.2629446,78.0376028 M39.3880408,78.7502601 C39.3550087,78.7502601 39.3213761,78.7490573 39.288344,78.7460503 C39.1135743,78.7316168 38.9388047,78.7147776 38.764035,78.6985399 C38.1039942,78.6347916 37.6205248,78.0466238 37.6853878,77.3850853 C37.7202216,77.0236448 37.9124082,76.7145259 38.1868746,76.5196727 L38.1868746,58.9305678 C38.1868746,58.2660224 38.7243965,57.7277706 39.3880408,57.7277706 C40.0510845,57.7277706 40.589207,58.2660224 40.589207,58.9305678 L40.589207,77.5474629 C40.589207,77.8842462 40.44807,78.2047916 40.2012303,78.4327217 C39.978414,78.6377986 39.6883324,78.7502601 39.3880408,78.7502601 M62.1555452,79.6577706 C61.7321341,79.6577706 61.3213353,79.433449 61.1021224,79.0359245 C60.7820117,78.4537706 60.9934169,77.7218685 61.5741808,77.4013231 C69.8562216,72.8300923 76.270449,65.4557427 79.6343149,56.6356308 C79.8709446,56.0137846 80.5634169,55.7028615 81.1850204,55.9410154 C81.8048222,56.1779664 82.1153236,56.8731832 81.8786939,57.4932252 C78.3118309,66.844372 71.5132303,74.6625538 62.7345073,79.5086238 C62.5501283,79.6096587 62.3513353,79.6577706 62.1555452,79.6577706 M54.1713936,83.0171832 C53.6548921,83.0171832 53.1780292,82.6804 53.0218776,82.1601902 C52.8302915,81.5233091 53.1906414,80.853351 53.8260583,80.6621063 C54.2752945,80.5267916 54.7209271,80.3842601 55.1635569,80.2339105 C55.7953703,80.0180084 56.4740292,80.3590014 56.6866356,80.9874629 C56.8998426,81.6171273 56.5623149,82.2985119 55.934105,82.5126098 C55.4656501,82.671379 54.9929913,82.8223301 54.51793,82.9654629 C54.4026181,82.9991413 54.286105,83.0171832 54.1713936,83.0171832 M37.41993,84.4599385 C37.372484,84.4599385 37.3244373,84.4569315 37.2763907,84.4521203 C29.8597901,83.5680643 22.7843207,80.7120224 16.8151254,76.1925119 C16.2860117,75.791379 16.1809096,75.0372252 16.580898,74.5067916 C16.9808863,73.9769594 17.7334169,73.8729175 18.2637318,74.273449 C23.8941983,78.5367636 30.5666764,81.2298266 37.5604665,82.0627636 C38.2187055,82.1415469 38.6889621,82.7399385 38.6114869,83.3996727 C38.5382157,84.0106937 38.0199125,84.4599385 37.41993,84.4599385" id="Fill-1" fill="#1D8CEF"></path>
                    <path d="M30.6335813,17.0070713 C30.1717329,17.0070713 29.7321061,16.7388476 29.5339137,16.2890014 C29.2666542,15.6809874 29.5417213,14.9707357 30.1483102,14.7031133 C30.6065551,14.5010434 31.0702052,14.3097986 31.5380595,14.1299804 C32.1554589,13.892428 32.8509341,14.1997427 33.0899662,14.820386 C33.3283977,15.440428 33.019698,16.1362462 32.3998962,16.3744 C31.9686776,16.5415888 31.5404618,16.7177986 31.1176513,16.9042322 C30.959698,16.973393 30.7957388,17.0070713 30.6335813,17.0070713 M64.6986542,25.1000923 C64.3521178,25.1000923 64.0079837,24.9509455 63.7707534,24.6622741 C60.0062985,20.0856308 54.975214,16.887393 49.2198262,15.4121622 C48.1634006,15.1415329 47.0865551,14.9310434 46.019319,14.7873091 C45.3616805,14.6977007 44.9010332,14.0920923 44.989319,13.4341622 C45.0788058,12.7750294 45.6901994,12.3179664 46.3406309,12.4027636 C47.4997563,12.5591273 48.668491,12.7876587 49.8150041,13.0817427 C56.0682752,14.6844699 61.5347825,18.1599524 65.6253539,23.1329175 C66.0469633,23.6453091 65.9736921,24.4036727 65.4613948,24.8258545 C65.2379778,25.0104839 64.9671149,25.1000923 64.6986542,25.1000923 M13.4310799,46.2031692 C12.8166834,46.2031692 12.2923743,45.7334769 12.2359195,45.1086238 C12.1554414,44.2155469 12.1146017,43.3056308 12.1140012,42.4035329 C12.1140012,39.8806657 12.4335114,37.3499804 13.0647242,34.8818406 C14.7343452,28.3500503 18.4141178,22.7077287 23.706456,18.5652951 C24.2277621,18.1563441 24.9832956,18.2477566 25.3916921,18.7721762 C25.8006892,19.295393 25.7088,20.051351 25.1856921,20.4597007 C20.3155638,24.2731692 16.9294764,29.4662462 15.3919837,35.478428 C14.8106192,37.7517147 14.5163335,40.0821343 14.5163335,42.4035329 C14.5169341,43.2322601 14.5547708,44.0706098 14.6292431,44.8921203 C14.6881003,45.5536587 14.201628,46.1376168 13.540386,46.198358 C13.5037504,46.201365 13.4671149,46.2031692 13.4310799,46.2031692 M64.4037679,62.4270993 C64.1281003,62.4270993 63.8506309,62.3332811 63.6248117,62.1402322 C63.1197213,61.7090294 63.059663,60.9488615 63.490281,60.4448895 C66.2541644,57.2015469 68.1946484,53.4476168 69.2588816,49.2859385 C69.8396455,47.0132531 70.1345318,44.683435 70.1345318,42.361435 C70.1345318,39.6641622 69.7405493,36.9831273 68.9627942,34.3929035 C68.7718087,33.7572252 69.1321586,33.0854629 69.7669749,32.8948196 C70.4041936,32.7047776 71.0726426,33.064414 71.2630274,33.7000923 C72.109249,36.5152392 72.5368641,39.4296168 72.5368641,42.361435 C72.5368641,44.8843021 72.2167534,47.4149874 71.5861411,49.8825259 C70.4306192,54.4026378 68.3213714,58.4819245 65.3178554,62.0055189 C65.0800245,62.2845678 64.7430974,62.4270993 64.4037679,62.4270993 M57.8760303,68.1000923 C57.4790449,68.1000923 57.0904676,67.9028336 56.8610449,67.541393 C56.5054997,66.9820923 56.6712606,66.2375608 57.2310041,65.8821343 C57.6213831,65.6325538 58.0057563,65.3757566 58.3829224,65.1075329 C58.925249,64.7256448 59.6747767,64.8549455 60.0573481,65.3968056 C60.4399195,65.9392671 60.3107942,66.6892112 59.7696688,67.0735049 C59.3594706,67.3621762 58.9432665,67.6430294 58.5192548,67.9124559 C58.3198612,68.0387497 58.0970449,68.1000923 57.8760303,68.1000923 M32.8112956,71.0216867 C32.6809691,71.0216867 32.5482402,71.0006378 32.4185143,70.9555329 C25.2097155,68.4585259 19.2585376,63.3550573 15.6598437,56.5875189 C15.3487417,56.002358 15.5703569,55.2740643 16.1565259,54.9607357 C16.7420945,54.6492112 17.4688,54.8729315 17.7811032,55.4586937 C21.0927184,61.687379 26.5700362,66.3843021 33.204077,68.6828476 C33.8310857,68.899351 34.1632082,69.5849455 33.9463977,70.2128056 C33.7740303,70.7101622 33.309179,71.0216867 32.8112956,71.0216867" id="Fill-3" fill="#005ABC"></path>
                    <path d="M108.618515,20.2043469 C111.031658,20.2043469 112.575156,20.3607105 113.518072,20.5074517 C114.081419,20.5952559 114.49462,21.0805846 114.49462,21.6501091 L114.49462,26.8870881 C114.49462,27.466235 114.065203,27.9527664 113.493448,28.0339552 C112.577559,28.1638573 111.133757,28.2925566 109.15904,28.2925566 C103.77241,28.2925566 102.254736,26.7728224 102.254736,24.3708364 C102.254736,21.4787105 104.16339,20.2043469 108.618515,20.2043469 M109.15904,32.3616196 C113.336696,32.3616196 117.09034,31.9977734 119.030223,31.7319552 C119.601978,31.653172 120.026591,31.164235 120.026591,30.5862909 L120.026591,16.8214797 C120.026591,9.1746965 114.688608,6.3805986 107.052194,6.3805986 C100.639769,6.3805986 98.9257044,8.1451021 98.9257044,10.0076336 C98.9257044,10.7172839 99.194165,11.3138713 99.5022641,11.7673259 C99.8283808,12.2508503 100.465599,12.413228 100.9815,12.1419972 C102.080567,11.5646545 104.078107,10.8904867 106.9555,10.8904867 C110.830462,10.8904867 113.683833,11.7631161 114.313244,15.1098993 C114.469996,15.9356196 113.922865,16.5562629 113.086853,16.4834937 C111.842445,16.3770462 110.156008,16.2826266 108.423926,16.2826266 C99.7593137,16.2826266 96.6735178,19.0767245 96.6735178,24.420151 C96.6735178,28.5373259 98.9749522,32.3616196 109.15904,32.3616196" id="Fill-5" fill="#005ABC"></path>
                    <path d="M147.189522,24.2731692 C147.189522,19.9100224 144.054479,17.8021203 138.620403,17.0672112 L133.629557,16.4297287 C130.934741,16.0869315 129.466315,15.3015049 129.466315,13.5863161 C129.466315,11.5770434 131.377371,10.5961622 135.14603,10.5961622 C139.500858,10.5961622 142.282759,11.8560923 143.494135,12.6337007 C143.955983,12.9301902 144.561971,12.8586238 144.939138,12.4592951 C145.383569,11.9890014 145.817791,11.2919804 145.817791,10.449421 C145.817791,8.04743497 141.900187,6.38035804 135.096782,6.38035804 C127.020141,6.38035804 123.936747,9.95867972 123.936747,14.1257706 C123.936747,18.9297427 127.608111,20.9883301 132.844595,21.5277846 L136.663703,21.9692112 C140.189126,22.3613231 141.362065,23.2429734 141.362065,25.057393 C141.362065,27.2140084 138.965138,27.9982322 135.586858,27.9982322 C131.526916,27.9982322 128.199686,26.8664 126.54628,26.077365 C125.994345,25.8145538 125.335505,26.021435 125.038216,26.5554769 L124.034642,28.3530573 C123.718135,28.9231832 123.92954,29.6472671 124.510904,29.944358 C126.358298,30.8891552 130.400823,32.361379 135.881744,32.361379 C143.174024,32.361379 147.189522,29.1745678 147.189522,24.2731692" id="Fill-7" fill="#005ABC"></path>
                    <path d="M162.994707,20.2043469 C165.409652,20.2043469 166.951949,20.3607105 167.894264,20.5074517 C168.457611,20.5952559 168.86841,21.0805846 168.86841,21.6501091 L168.86841,26.8870881 C168.86841,27.466235 168.444398,27.9527664 167.870241,28.0339552 C166.951949,28.1638573 165.512952,28.2925566 163.53283,28.2925566 C158.148602,28.2925566 156.631529,26.7728224 156.631529,24.3708364 C156.631529,21.4787105 158.541984,20.2043469 162.994707,20.2043469 M163.53283,32.3616196 C167.715891,32.3616196 171.465331,31.9977734 173.407016,31.7319552 C173.978771,31.653172 174.400981,31.164235 174.400981,30.5862909 L174.400981,16.8214797 C174.400981,9.1746965 169.065401,6.3805986 161.428987,6.3805986 C155.015961,6.3805986 153.301897,8.1451021 153.301897,10.0076336 C153.301897,10.7172839 153.570958,11.3138713 153.876054,11.7673259 C154.206976,12.2508503 154.841792,12.413228 155.357693,12.1419972 C156.45736,11.5646545 158.453699,10.8904867 161.330492,10.8904867 C165.207255,10.8904867 168.060025,11.7631161 168.690037,15.1098993 C168.846188,15.9356196 168.301459,16.5562629 167.462445,16.4834937 C166.218637,16.3770462 164.5322,16.2826266 162.800719,16.2826266 C154.135506,16.2826266 151.04971,19.0767245 151.04971,24.420151 C151.04971,28.5373259 153.351145,32.3616196 163.53283,32.3616196" id="Fill-9" fill="#005ABC"></path>
                    <path d="M183.845631,30.5185734 L183.845631,18.2434266 C183.845631,13.7828531 185.950074,11.4295804 190.208809,11.4295804 C194.37085,11.4295804 196.571987,13.7828531 196.571987,18.2434266 L196.571987,30.5185734 C196.571987,31.1572587 197.09089,31.6750629 197.726908,31.6750629 L200.998284,31.6750629 C201.637304,31.6750629 202.153205,31.1572587 202.153205,30.5185734 L202.153205,16.8217203 C202.153205,10.301958 197.159957,6.38023776 190.208809,6.38023776 C183.356156,6.38023776 178.263812,10.301958 178.263812,16.8217203 L178.263812,30.5185734 C178.263812,31.1572587 178.779713,31.6750629 179.419334,31.6750629 L182.690109,31.6750629 C183.327328,31.6750629 183.845631,31.1572587 183.845631,30.5185734" id="Fill-11" fill="#005ABC"></path>
                    <path d="M96.673698,41.5927874 C96.673698,39.8228713 97.7541469,38.9869273 99.6694064,38.9869273 C100.84775,38.9869273 101.9288,39.3796406 102.272334,39.5275846 L102.272334,74.0773329 C102.272334,74.714214 101.756433,75.2314168 101.119815,75.2314168 L97.8262169,75.2314168 C97.1895988,75.2314168 96.673698,74.714214 96.673698,74.0773329 L96.673698,41.5927874 Z" id="Fill-13" fill="#1D8CEF"></path>
                    <path d="M128.448868,62.8872294 C128.448868,58.2642783 125.306016,54.7731594 120.787229,54.7731594 C116.269043,54.7731594 113.125591,58.2642783 113.125591,62.8872294 C113.125591,67.4109497 116.269043,70.9519846 120.787229,70.9519846 C125.306016,70.9519846 128.448868,67.4109497 128.448868,62.8872294 M134.291941,62.8872294 C134.291941,70.2152713 128.448868,75.9195371 120.787229,75.9195371 C113.125591,75.9195371 107.281917,70.2152713 107.281917,62.8872294 C107.281917,55.4112434 113.125591,49.8549217 120.787229,49.8549217 C128.448868,49.8549217 134.291941,55.4112434 134.291941,62.8872294" id="Fill-15" fill="#1D8CEF"></path>
                    <path d="M158.946657,62.7885399 C158.946657,58.2648196 155.853054,54.920442 151.432162,54.920442 C146.865328,54.920442 143.869619,58.4614769 143.869619,62.7885399 C143.869619,67.5101203 146.865328,70.6079245 151.432162,70.6079245 C155.853054,70.6079245 158.946657,67.3122601 158.946657,62.7885399 L158.946657,62.7885399 Z M141.693106,80.5803161 C141.909917,79.9861343 142.563952,79.6830294 143.157928,79.8971273 C144.490622,80.3782462 146.885147,81.0337706 149.910284,81.0337706 C154.329975,81.0337706 158.995905,79.4605119 158.995905,72.2310993 L158.995905,71.6411273 C157.473427,73.4110434 154.576214,75.3295049 150.597952,75.3295049 C143.279847,75.3295049 138.025345,70.2639245 138.025345,62.7885399 C138.025345,55.3624699 143.623981,49.8548615 151.481409,49.8548615 C158.946657,49.8548615 164.545293,54.2312392 164.545293,63.8710573 L164.545293,70.9519245 C164.545293,81.378372 158.603124,85.5574909 150.499456,85.5574909 C146.33261,85.5574909 143.267234,84.6944839 141.625841,84.0786517 C141.037269,83.8585399 140.737578,83.2060224 140.952587,82.6148476 L141.693106,80.5803161 Z" id="Fill-17" fill="#1D8CEF"></path>
                    <path d="M169.947778,53.1497441 C169.947778,51.3305133 171.028227,50.5438839 172.943486,50.5438839 C174.122431,50.5438839 175.20288,50.9365972 175.546413,51.0833385 L175.546413,74.1217161 C175.546413,74.7345413 175.050932,75.2312965 174.439539,75.2312965 L171.055854,75.2312965 C170.443859,75.2312965 169.947778,74.7345413 169.947778,74.1217161 L169.947778,53.1497441 Z M176.136186,45.774793 C176.136186,47.6932545 174.662956,49.1684853 172.747096,49.1684853 C170.827632,49.1684853 169.359807,47.6980657 169.358606,45.7753944 C169.358606,43.8575343 170.831836,42.3823035 172.747096,42.3817021 C174.666559,42.3817021 176.136186,43.8527231 176.136186,45.774793 L176.136186,45.774793 Z" id="Fill-19" fill="#1D8CEF"></path>
                    <g id="Group-23" transform="translate(181.376093, 49.474056)">
                        <mask id="mask-2" fill="white">
                            <use xlink:href="#path-1"></use>
                        </mask>
                        <g id="Clip-22"></g>
                        <path d="M0.162217493,10.8560266 C0.162217493,4.31521538 5.26957609,0.380865734 12.1450513,0.380865734 C19.1190222,0.380865734 24.1284857,4.31521538 24.1284857,10.8560266 L24.1284857,24.6322643 C24.1284857,25.2523063 23.6257977,25.7562783 23.0053953,25.7562783 L19.6523399,25.7562783 C19.0325382,25.7562783 18.5298501,25.2523063 18.5298501,24.6322643 L18.5298501,12.2819427 C18.5298501,7.80693566 16.3197044,5.44644615 12.1450513,5.44644615 C7.87250321,5.44644615 5.76085306,7.80693566 5.76085306,12.2819427 L5.76085306,24.6322643 C5.76085306,25.2523063 5.25756443,25.7562783 4.63776268,25.7562783 L1.28470729,25.7562783 C0.664905539,25.7562783 0.162217493,25.2523063 0.162217493,24.6322643 L0.162217493,10.8560266 Z" id="Fill-21" fill="#1D8CEF" mask="url(#mask-2)"></path>
                    </g>
                    <path d="M40.1713813,41.2380224 C40.3815854,40.6546657 40.212221,40.0021483 39.7461685,39.5956028 C38.5750315,38.5720224 38.0987691,37.0396587 38.4717312,35.4940643 C38.8146641,34.072358 40.0026175,32.8966238 41.4278012,32.5682601 C41.7292939,32.4984979 42.0295854,32.4630154 42.3250723,32.4564 C42.3460927,32.4557986 42.3665125,32.453393 42.3875329,32.4539944 C42.4091539,32.453393 42.4295738,32.4557986 42.4505942,32.4564 C42.746081,32.4630154 43.0463726,32.4984979 43.3478653,32.5682601 C44.773049,32.8966238 45.9610023,34.072358 46.3039353,35.4940643 C46.6768974,37.0396587 46.200635,38.5720224 45.029498,39.5956028 C44.5628449,40.0021483 44.394081,40.6546657 44.6042851,41.2380224 L47.9002851,50.3967217 L42.4139586,50.3967217 L42.3611073,50.3967217 L36.8753813,50.3967217 L40.1713813,41.2380224 Z M38.123393,53.4037147 L42.3611073,53.4037147 L42.4139586,53.4037147 L46.6522735,53.4037147 L48.7639236,53.4037147 C49.5428799,53.4037147 50.2761918,53.022428 50.7242268,52.3831413 C51.0449382,51.9254769 51.1896787,51.3745958 51.1500402,50.8297287 C51.1692589,50.6192392 51.1464367,50.4015329 51.0701627,50.190442 L47.8005883,41.1057147 C48.8804367,39.8337566 49.4846233,38.2141902 49.4846233,36.5272671 C49.4846233,34.357421 48.5116787,32.3373231 46.8150315,30.9847776 C46.5105359,30.742414 46.1850198,30.5379385 45.8510956,30.3515049 C45.8294746,30.3388755 45.8072531,30.327449 45.7856321,30.315421 C45.539393,30.1813091 45.2871481,30.0628336 45.0276962,29.959393 C44.9868566,29.9431552 44.9466175,29.9245119 44.9051773,29.9088755 C44.162256,29.6292252 43.3766933,29.4770713 42.5749149,29.458428 C42.5118536,29.4566238 42.4499936,29.4488056 42.3875329,29.4488056 C42.3256729,29.4488056 42.2626117,29.4566238 42.2007516,29.458428 C41.3989732,29.4770713 40.6128099,29.6292252 39.8704892,29.9088755 C39.829049,29.9245119 39.7888099,29.9431552 39.7473697,29.959393 C39.4885184,30.0628336 39.2362735,30.1813091 38.9900344,30.315421 C38.9684134,30.327449 38.9461918,30.3388755 38.9245708,30.3515049 C38.5906466,30.5379385 38.2651306,30.742414 37.960635,30.9847776 C36.2639878,32.3373231 35.2910431,34.357421 35.2910431,36.5272671 C35.2910431,38.2141902 35.8952297,39.8337566 36.9750781,41.1057147 L33.7049032,50.190442 C33.6286292,50.4015329 33.6064076,50.6192392 33.6256262,50.8291273 C33.5853872,51.3745958 33.7295271,51.9254769 34.0514397,52.3831413 C34.4994746,53.022428 35.232186,53.4037147 36.0117429,53.4037147 L36.8753813,53.4037147 L38.123393,53.4037147 Z" id="Fill-24" fill="#005ABC"></path>
                </g>
            </g>
        </g>
    </g>
</svg>